<svg xmlns="http://www.w3.org/2000/svg" viewBox="0 0 511 489.7"><defs><style>.cls-1{fill:#aaa;}</style></defs><title>Asset 2</title><g id="Layer_2" data-name="Layer 2"><g id="Layer_1-2" data-name="Layer 1"><path class="cls-1" d="M509.67,185.05a27.12,27.12,0,0,0-23.38-18.67L338.8,153,280.48,16.48a27.16,27.16,0,0,0-50,0L172.21,153,24.69,166.38A27.19,27.19,0,0,0,9.28,213.9l111.48,97.78L87.89,456.49a27.12,27.12,0,0,0,40.39,29.34l127.22-76,127.18,76a27.15,27.15,0,0,0,40.41-29.34L390.22,311.68,501.7,213.92A27.18,27.18,0,0,0,509.67,185.05Z"/></g></g></svg>