<svg xmlns="http://www.w3.org/2000/svg" viewBox="0 0 394.96 394.96"><defs><style>.cls-1{fill:#e7ecec;}.cls-2{fill:#3bafa9;}</style></defs><title>Asset 1</title><g id="Layer_2" data-name="Layer 2"><g id="Layer_1-2" data-name="Layer 1"><circle class="cls-1" cx="197.48" cy="197.48" r="197.48"/><path class="cls-2" d="M335.15,339.05a49.67,49.67,0,0,0-5-2.88l-79.51-34.4c-7.41-3.71-11.91-10.59-14.46-15.73a15,15,0,0,1,13.5-21.66h56.1c.95,0,19.54,1.71,33.24-4.18a7.89,7.89,0,0,0,4.39-5,8,8,0,0,0-1.17-6.77c-16.08-22.85-53.55-82.73-54.78-144.56-.08-3.34-3-82.7-83.25-83.33-2.3,0-4.53.17-6.77.32-2.23-.15-4.47-.31-6.77-.32-80.26.63-83.17,80-83.25,83.33-1.23,61.83-38.7,121.71-54.78,144.56a8,8,0,0,0-1.16,6.77,7.87,7.87,0,0,0,4.38,5c13.7,5.89,32.29,4.22,33.25,4.18h56.1A15,15,0,0,1,158.74,286c-2.55,5.14-7,12-14.45,15.73l-79.51,34.4a48.72,48.72,0,0,0-5,2.88,196.79,196.79,0,0,0,123.38,55.39h28.58A196.79,196.79,0,0,0,335.15,339.05Z"/></g></g></svg>