<svg xmlns="http://www.w3.org/2000/svg" viewBox="0 0 510.62 489.78"><defs><style>.cls-1{fill:#aaa;}.cls-2{fill:#f3f362;}</style></defs><title>Asset 1</title><g id="Layer_2" data-name="Layer 2"><g id="Layer_1-2" data-name="Layer 1"><path class="cls-1" d="M255.06,0a27.14,27.14,0,0,1,25,16.5L338.36,153l147.5,13.4a27.26,27.26,0,0,1,15.5,47.6l-111.5,97.8,32.9,144.8a27.2,27.2,0,0,1-40.5,29.3q-63.6-37.95-127.2-76Zm0,377.1v0Z"/><path class="cls-2" d="M255.56,0a27.14,27.14,0,0,0-25,16.5L172.26,153,24.76,166.4A27.26,27.26,0,0,0,9.26,214l111.5,97.8L88,456.5a27.2,27.2,0,0,0,40.5,29.3q63.6-37.95,127.2-76Q255.51,204.9,255.56,0Z"/></g></g></svg>