<svg xmlns="http://www.w3.org/2000/svg" xmlns:xlink="http://www.w3.org/1999/xlink" viewBox="0 0 293.49 226.84">
	<defs>
		<style>
			.cls-1{fill:none;}.cls-2{fill:#45c7c0;}.cls-3{fill:#fff;opacity:0.4;}.cls-4{opacity:0.1;}.cls-5{opacity:0.2;}.cls-6{fill:#37474f;}.cls-7{fill:#455a64;}.cls-8{fill:#fafafa;}.cls-9{fill:#263238;}.cls-10{fill:#e0e0e0;}.cls-11{fill:#ebebeb;}.cls-12{fill:#27debf;}.cls-13{clip-path:url(#clip-path);}.cls-14{fill:#f0f0f0;}
		</style>
	</defs>
	<title>
        Asset 1
	</title>
	<g id="Layer_2" data-name="Layer 2">
        <clipPath id="clip-path">
            <path class="cls-1" d="M280.09,122c0-4.58-2-7.42-5.16-7.42a8.23,8.23,0,0,0-4.07,1.26c-3.53,2-6.78,6.12-8.71,10.94l-.06.15h0a21.28,21.28,0,0,0-1.59,7.67V151l19.59-11.31Z" />
        </clipPath>
		<g id="Mailbox">
			<g id="Letter">
				<path class="cls-2" d="M27.36,97.45a6.85,6.85,0,0,1,3.1-5.36L188.68.74a6.82,6.82,0,0,1,6.19,0l3.49,2a6.87,6.87,0,0,1,3.09,5.36V129.39a6.85,6.85,0,0,1-3.09,5.36L40.13,226.1a6.82,6.82,0,0,1-6.19,0l-3.48-2a6.87,6.87,0,0,1-3.1-5.36Z" />
				<path class="cls-3" d="M28.27,94.4l8.78,5.07L200.54,5.06a6.48,6.48,0,0,0-2.18-2.31l-3.5-2a6.72,6.72,0,0,0-6.17,0L30.46,92.09A6.33,6.33,0,0,0,28.27,94.4Z" />
				<path class="cls-4" d="M27.36,97.45V218.73a6.84,6.84,0,0,0,3.1,5.36l3.48,2a5,5,0,0,0,.85.38,6.3,6.3,0,0,0,1.28.3,7.69,7.69,0,0,0,2.44-.09,5.87,5.87,0,0,0,.6-.16,3,3,0,0,0,.36-.15,1.77,1.77,0,0,1-1.47,0,2.12,2.12,0,0,1-1-2V103a2.71,2.71,0,0,1,1.61-2.64l-1.61-.93L28.27,94.4A6.35,6.35,0,0,0,27.36,97.45Z" />
				<path class="cls-5" d="M37.05,99.47l73.27,27.37a11.91,11.91,0,0,0,14.14-4.65l11.76-18L201.13,4.73,138.57,104.84l62.88,24.61a6.45,6.45,0,0,1-1,3.08l-62.09-27.41L124.72,127a11.91,11.91,0,0,1-14.91,4.58l-9.74-4.29L38,226.35a2.12,2.12,0,0,1-1-2v-2l62.72-95.15Z" />
			</g>
			<path class="cls-6" d="M56.17,71.15,45.36,64.91h0l-.1-.05h0c-4.8-2.71-11.39-2.3-18.67,1.91C11.9,75.24,0,95.84,0,112.78c0,8.46,3,14.4,7.76,17.18h0l9.84,5.62L20,131.67a27.07,27.07,0,0,0,7.62-3c14.67-8.47,26.57-29.07,26.57-46a28.82,28.82,0,0,0-.83-6.79Z" />
			<path class="cls-7" d="M36.84,72.66c-14.67,8.47-26.57,29.07-26.57,46S22.17,142.48,36.84,134,63.4,104.94,63.41,88,51.51,64.19,36.84,72.66Z" />
			<path class="cls-8" d="M28.58,105.35a.84.84,0,0,1-.2-.75,2.19,2.19,0,0,1,.39-1L37,91.41c.2-.29.41-.58.62-.86a2.32,2.32,0,0,1,.7-.64l2.94-1.7a.62.62,0,0,1,1,.59v28.14a2,2,0,0,1-.3,1,2,2,0,0,1-.72.76l-3,1.77a.63.63,0,0,1-1-.59V98.36l-5.36,7.93a1.74,1.74,0,0,1-.74.66.68.68,0,0,1-.69,0Z" />
			<g id="MailBox-2" data-name="MailBox">
				<path class="cls-9" d="M231.59,202.34v-1.79H232a7,7,0,0,1,2.9-2.84c4.45-2.58,11.68-2.58,16.14,0a7,7,0,0,1,2.89,2.84h.44v1.74c0,1.71-1.07,3.43-3.33,4.73-4.46,2.58-11.69,2.58-16.14,0C232.7,205.73,231.58,204,231.59,202.34Z" />
				<path class="cls-7" d="M251.08,195.89c-4.46-2.57-11.69-2.57-16.14,0s-4.46,6.75,0,9.32,11.68,2.57,16.14,0S255.53,198.47,251.08,195.89Z" />
				<path class="cls-6" d="M245.94,132v67.78a1.45,1.45,0,0,1-.86,1.2,4.6,4.6,0,0,1-4.15,0,1.45,1.45,0,0,1-.86-1.2V132Z" />
				<polygon class="cls-9" points="240.07 139.4 240.07 141.52 245.94 144.9 245.94 142.79 240.07 139.4" />
				<path class="cls-7" d="M277.57,114.07h0l-.5,1-5.38,10.79L269.14,131l-8.64,17.33-.95,1.91h-.17a1.93,1.93,0,0,1-1-.23l-38.5-22.25a2.15,2.15,0,0,1-1-1.68V111.2c0-7.42,4.88-16.25,10.91-19.73,2.86-1.65,5.46-1.79,7.4-.69v0Z" />
				<path class="cls-6" d="M270.3,114.85c-2.43.9-11.29,8.22-11.29,19.73,0,9.68,0,14.71,0,15.61a2.19,2.19,0,0,0,.36,0h.17l.95-1.91L269.14,131l2.55-5.12.59-1.17Z" />
				<path class="cls-6" d="M280.74,138.05h0a1.24,1.24,0,0,1-.4.39l-.1.06L260.35,150a1.87,1.87,0,0,1-.8.23h-.17V134.58a22.55,22.55,0,0,1,1.73-8.24l1,.57,7.05,4.07,10.95,6.32.56.32A.29.29,0,0,1,280.74,138.05Z" />
				<path class="cls-7" d="M277.57,114.07c-1.93-1-4.47-.84-7.27.78a22.09,22.09,0,0,0-7.95,8.83,26.72,26.72,0,0,0-1.24,2.66,22.55,22.55,0,0,0-1.73,8.24v15.64h.17a1.87,1.87,0,0,0,.8-.23l19.89-11.48.1-.06a2.1,2.1,0,0,0,.4-.39h0a2.07,2.07,0,0,0,.47-1.22V122C281.21,118,279.8,115.24,277.57,114.07Zm2.23,23.4-19,11c-.16.1-.29,0-.29-.16v-13.7a21.28,21.28,0,0,1,1.59-7.67l.06-.15a26,26,0,0,1,1.32-2.82,20.69,20.69,0,0,1,7.39-8.12,8.23,8.23,0,0,1,4.07-1.26,4.57,4.57,0,0,1,2.14.51c1.91,1,3,3.48,3,6.91v15A.64.64,0,0,1,279.8,137.47Z" />
				<path class="cls-9" d="M280.09,122V137.3l-18-10.39.06-.15c1.93-4.82,5.18-8.91,8.71-10.94a8.23,8.23,0,0,1,4.07-1.26C278.11,114.56,280.09,117.4,280.09,122Z" />
				<path class="cls-10" d="M247.15,129.61l1.58-.91h0a2.12,2.12,0,0,1,2.11.22,6.61,6.61,0,0,1,3,5.2,2.12,2.12,0,0,1-.87,1.94h0l-1.47.84-.26-.44a3.19,3.19,0,0,1-.87-.34,6.64,6.64,0,0,1-3-5.2,3,3,0,0,1,.1-.76Z" />
				<path class="cls-8" d="M249.33,129.78a6.64,6.64,0,0,1,3,5.2c0,1.91-1.34,2.69-3,1.73a6.61,6.61,0,0,1-3-5.2C246.33,129.6,247.67,128.82,249.33,129.78Z" />
				<path class="cls-11" d="M249.33,134.07a.87.87,0,0,1-.87-.87V108.6a.87.87,0,1,1,1.74,0v24.6A.87.87,0,0,1,249.33,134.07Z" />
				<polygon class="cls-12" points="248.46 111.03 239.74 106 242.47 111.25 239.74 113.35 248.46 118.38 248.46 111.03" />
			</g>
			<g class="cls-13">
				<g id="Letter-2" data-name="Letter">
					<path class="cls-14" d="M275.55,127a.86.86,0,0,0-.39-.66l-19.72-11.39a.87.87,0,0,0-.77,0l-.43.25a.89.89,0,0,0-.39.67V131a.86.86,0,0,0,.39.67L274,143a.87.87,0,0,0,.77,0l.43-.26a.86.86,0,0,0,.39-.66Z" />
					<path class="cls-8" d="M275.43,126.61l-1.09.64L254,115.48a.84.84,0,0,1,.27-.29l.43-.25a.87.87,0,0,1,.77,0l19.72,11.39A.73.73,0,0,1,275.43,126.61Z" />
					<path class="cls-10" d="M275.55,127v15.12a.86.86,0,0,1-.39.66l-.43.26-.11,0-.16,0a1,1,0,0,1-.3,0l-.08,0,0,0a.22.22,0,0,0,.18,0,.28.28,0,0,0,.12-.26V127.69a.34.34,0,0,0-.2-.33l.2-.11,1.09-.64A.8.8,0,0,1,275.55,127Z" />
					<path class="cls-10" d="M274.34,127.25l-9.13,3.41a1.49,1.49,0,0,1-1.76-.58L262,127.83l-8.09-12.39,7.8,12.47L253.85,131a1,1,0,0,0,.12.39l7.74-3.42,1.7,2.73a1.5,1.5,0,0,0,1.86.57l1.22-.54,7.73,12.35a.28.28,0,0,0,.12-.26v-.25l-7.82-11.85Z" />
				</g>
			</g>
			<path class="cls-7" d="M293.21,124.53l-2.09,1.74a22.41,22.41,0,0,1-1.79,2.3l-6,6.93L281.21,138l-13.64,7.88-6.52,5.41H261a.92.92,0,0,1-.57-.09l-.61-.35h0a.4.4,0,0,1-.1-.61h0l4.76-5.5h0l3-3.49a88.63,88.63,0,0,1,19-15.69c2.82-1.62,4.58-2.18,5.21-1.79h0l1.43.83S293.2,124.53,293.21,124.53Z" />
			<path class="cls-6" d="M290.8,129.43l-4,4.57s0,.06-.08.1L283,138.43a3.54,3.54,0,0,1-.76.63l-21,12.1a.63.63,0,0,1-.23.08H261l7.56-8.73h0L269,142a88.88,88.88,0,0,1,19-15.68c2.75-1.59,4.51-2.16,5.18-1.83,0,0,0,0,0,0C294,125,293.22,126.64,290.8,129.43Z" />
		</g>
	</g>
</svg>
