<svg xmlns="http://www.w3.org/2000/svg" viewBox="0 0 394.96 395.09"><defs><style>.cls-1{fill:#e7ecec;}.cls-2{fill:#3bafa9;}</style></defs><title>Asset 3</title><g id="Layer_2" data-name="Layer 2"><g id="Layer_1-2" data-name="Layer 1"><circle class="cls-1" cx="197.48" cy="197.48" r="197.48"/><path class="cls-2" d="M329.51,344.4l-66.59-33.29a28.87,28.87,0,0,1-16-25.81V255.61c1.14-1.35,2.28-2.72,3.4-4.14A159.08,159.08,0,0,0,277.65,199a23.75,23.75,0,0,0,16.86-22.61V144.69a23.68,23.68,0,0,0-7.92-17.57V81.31c.32-7.92-.15-25.75-11.65-42.37C259.38,16.46,230,5.4,199.45,10,168.9,5.4,139.52,16.46,124,38.94c-11.5,16.62-12,34.45-11.65,42.37v45.81a23.72,23.72,0,0,0-7.92,17.57v31.69A23.75,23.75,0,0,0,121.24,199a159.08,159.08,0,0,0,27.28,52.48c1.12,1.42,2.26,2.79,3.4,4.14V285.3A28.85,28.85,0,0,1,136,311.11L67,345.69a197.77,197.77,0,0,0,131.83,49.38v0h1.32v0a196,196,0,0,0,129.4-50.67Z"/></g></g></svg>