<svg width="0" height="0">
	<symbol id="account" xmlns="http://www.w3.org/2000/svg" viewBox="0 0 451.16 463.8">
		<g>
			<path style="stroke-linecap:round;fill:none;stroke-miterlimit:10;stroke-width:20px;" d="M441.16,453.75c0-95.69-96.52-173.26-215.58-173.26S10,358.06,10,453.75" />
			<circle style="fill:none;stroke-miterlimit:10;stroke-width:20px;" cx="225.58" cy="133.98" r="123.98" />
		</g>
	</symbol>
	<symbol id="cart" xmlns="http://www.w3.org/2000/svg" viewBox="0 0 456.01 430.04">
		<g>
			<path d="M150.11,321.42a54.31,54.31,0,1,0,54.31,54.31,54.3,54.3,0,0,0-54.31-54.31Zm0,88.65a34.34,34.34,0,1,1,34.34-34.34,34.34,34.34,0,0,1-34.34,34.34Z" />
			<path d="M359.76,321.42a54.31,54.31,0,1,0,54.31,54.31,54.31,54.31,0,0,0-54.31-54.31Zm0,88.65a34.34,34.34,0,1,1,34.34-34.34,34.35,34.35,0,0,1-34.34,34.34Z" />
			<path d="M446.12,93.5H93.6L86.41,53.27A60,60,0,0,0,37.8,4.74L11.74.16a10,10,0,1,0-3.5,19.66L34.4,24.41A40,40,0,0,1,66.75,56.76l35.34,199.37a49.81,49.81,0,0,0,49.12,41.23H360.86a49.78,49.78,0,0,0,47.82-35.44L455.6,106.38a10.48,10.48,0,0,0-1.49-8.89,10.14,10.14,0,0,0-8-4ZM389.61,256A29.74,29.74,0,0,1,361,277.29H151.31a29.8,29.8,0,0,1-29.45-24.76L97.2,113.37H432.74Z" />
		</g>
	</symbol>
	<symbol id="search" xmlns="http://www.w3.org/2000/svg" viewBox="0 0 386.84 413.65">
		<g>
			<line style="fill:none;stroke-width:20px;" x1="281.26" y1="305.8" x2="376.84" y2="403.65" />
			<circle style="fill:none;stroke-width:20px;stroke-miterlimit:10;" cx="175.4" cy="175.4" r="165.4" />
			<path style="fill:none;stroke-width:16px;" d="M137.44,63a131.16,131.16,0,0,0-75.19,81" />
		</g>
	</symbol>
</svg>
