<svg>
	<symbol id="star" xmlns="http://www.w3.org/2000/svg" viewBox="0 0 512 512">
		<path d="m10.201,.758l2.478,5.865 6.344,.545c0.44,0.038 0.619,0.587 0.285,0.876l-4.812,4.169 1.442,6.202c0.1,0.431-0.367,0.77-0.745,0.541l-5.452-3.288-5.452,3.288c-0.379,0.228-0.845-0.111-0.745-0.541l1.442-6.202-4.813-4.17c-0.334-0.289-0.156-0.838 0.285-0.876l6.344-.545 2.478-5.864c0.172-0.408 0.749-0.408 0.921,0z" />
	</symbol>
	<symbol id="secure" xmlns="http://www.w3.org/2000/svg" viewBox="0 0 512 512">
		<g>
			<path d="M466.4,88.4C396,69.1,325.1,39.1,261.5,1.5c-3.4-2-7.6-2-10.9,0C185.1,40.1,118.1,68.6,45.6,88.4
				c-4.7,1.3-7.9,5.5-7.9,10.4v110c0,113.3,52.3,188.3,96.1,231.3C181,486.4,236,512,256,512c20,0,75-25.6,122.2-71.9
				c43.9-43,96.1-118,96.1-231.3v-110C474.3,93.9,471.1,89.7,466.4,88.4z M452.8,208.8c0,105.8-48.8,175.8-89.7,215.9
				c-46.4,45.5-96.1,65.7-107.1,65.7c-11,0-60.7-20.2-107.1-65.7C108,384.7,59.2,314.7,59.2,208.8V107C128.5,87.3,193,59.9,256,23.3
				c61.4,35.6,129.2,64.4,196.8,83.7V208.8z" />
			<path d="M182.6,234c-6.6-6.6-15.4-10.3-24.8-10.3s-18.1,3.6-24.8,10.3c-13.7,13.7-13.7,35.9,0,49.5l63.6,63.6
				c6.6,6.6,15.4,10.3,24.8,10.3s18.1-3.6,24.8-10.3l132.8-132.8c13.7-13.7,13.7-35.9,0-49.5c-6.6-6.6-15.4-10.3-24.8-10.3
				c-9.4,0-18.1,3.6-24.8,10.3l-108,108L182.6,234z M344.6,180.1c2.5-2.5,5.9-3.9,9.5-3.9c3.6,0,7,1.4,9.5,3.9
				c5.3,5.3,5.3,13.8,0,19.1L231,331.9c-2.5,2.5-5.9,3.9-9.5,3.9s-7-1.4-9.5-3.9l-63.6-63.6c-5.3-5.3-5.3-13.8,0-19.1
				c2.5-2.5,5.9-3.9,9.5-3.9s7,1.4,9.5,3.9l46.4,46.4c2,2,4.8,3.2,7.6,3.2s5.6-1.1,7.6-3.2L344.6,180.1z" />
		</g>
	</symbol>
	<symbol id="offer" xmlns="http://www.w3.org/2000/svg" viewBox="0 0 512 512">
		<path d="M57.6,502c-5.1,0-9.2-4.1-9.2-9.2V19.2c0-3.2,1.5-6,4.3-7.8c1.5-0.9,3.2-1.4,4.9-1.4c1.4,0,2.8,0.3,3.9,0.9l62,29.6l62-29.5
	c1.4-0.6,2.7-0.9,4-0.9c1.4,0,2.7,0.3,3.7,0.8l0.2,0.1L256,40.4l62-29.5c1.2-0.6,2.6-0.9,3.9-0.9c1.4,0,2.6,0.3,3.8,0.9l62.8,29.5
	l62-29.5c1.3-0.6,2.5-0.9,4-0.9c1.7,0,3.4,0.5,5,1.4c2.6,1.7,4.2,4.6,4.2,7.8v473.6c0,5.1-4.1,9.2-9.2,9.2H57.6z M66.8,483.6h378.4
	V33.8l-52.7,25.1c-1.4,0.6-2.7,0.9-4,0.9c-1.4,0-2.7-0.3-3.7-0.8l-0.2-0.1L322,29.4l-62,29.5c-1.3,0.6-2.5,0.9-4,0.9
	c-1.4,0-2.6-0.3-3.8-0.9l-62.7-29.5l-62,29.5c-1.4,0.6-2.7,0.9-4,0.9c-1.4,0-2.8-0.3-3.9-0.9L66.8,33.8V483.6z" />
		<g>
			<path d="M190.1,246c-27.7,0-50.2-22.5-50.2-50.2c0-27.7,22.5-50.2,50.2-50.2c27.7,0,50.2,22.5,50.2,50.2
		C240.3,223.5,217.8,246,190.1,246z M190.1,164.1c-17.5,0-31.8,14.3-31.8,31.8s14.3,31.8,31.8,31.8s31.8-14.3,31.8-31.8
		S207.6,164.1,190.1,164.1z" />
			<path d="M321.9,377.9c-27.7,0-50.2-22.5-50.2-50.2s22.5-50.2,50.2-50.2c27.7,0,50.2,22.5,50.2,50.2c0,13.4-5.2,26-14.7,35.5
		C347.9,372.7,335.3,377.9,321.9,377.9z M321.9,295.9c-17.5,0-31.8,14.3-31.8,31.8s14.3,31.8,31.8,31.8c17.5,0,31.8-14.3,31.8-31.8
		c0-8.5-3.3-16.5-9.3-22.4C338.4,299.2,330.4,295.9,321.9,295.9z" />
			<path d="M165.1,362.5c-2.4,0-4.7-1-6.5-2.7s-2.7-4.1-2.7-6.5s1-4.7,2.7-6.5l187.5-188.2c1.8-1.8,4.1-2.7,6.5-2.7s4.7,1,6.5,2.7
		c1.8,1.7,2.7,4,2.7,6.4c0,2.5-1,4.8-2.7,6.6L171.7,359.8C169.9,361.6,167.6,362.5,165.1,362.5z" />
		</g>
	</symbol>
	<symbol id="reading" viewBox="0 0 512 512" xmlns="http://www.w3.org/2000/svg">
		<path d="m130.004 291.999h85.995c5.523 0 10-4.477 10-10s-4.477-10-10-10h-85.995c-5.523 0-10 4.477-10 10s4.477 10 10 10z" />
		<path d="m130.004 331.999h85.995c5.523 0 10-4.477 10-10s-4.477-10-10-10h-85.995c-5.523 0-10 4.477-10 10s4.477 10 10 10z" />
		<path d="m130.004 371.999h85.995c5.523 0 10-4.477 10-10s-4.477-10-10-10h-85.995c-5.523 0-10 4.477-10 10s4.477 10 10 10z" />
		<path d="m130.004 411.999h85.995c5.523 0 10-4.477 10-10s-4.477-10-10-10h-85.995c-5.523 0-10 4.477-10 10s4.477 10 10 10z" />
		<path d="m296.002 291.999h85.995c5.522 0 10-4.477 10-10s-4.478-10-10-10h-85.995c-5.522 0-10 4.477-10 10s4.478 10 10 10z" />
		<path d="m296.002 331.999h85.995c5.522 0 10-4.477 10-10s-4.478-10-10-10h-85.995c-5.522 0-10 4.477-10 10s4.478 10 10 10z" />
		<path d="m296.002 371.999h85.995c5.522 0 10-4.477 10-10s-4.478-10-10-10h-85.995c-5.522 0-10 4.477-10 10s4.478 10 10 10z" />
		<path d="m296.002 411.999h85.995c5.522 0 10-4.477 10-10s-4.478-10-10-10h-85.995c-5.522 0-10 4.477-10 10s4.478 10 10 10z" />
		<path d="m512.001 231.997c0-51.877-39.701-94.654-90.318-99.538-4.918-73.87-66.584-132.459-141.679-132.459-34.304 0-67.421 12.399-93.251 34.915-23.186 20.21-39.139 47.312-45.557 77.089-.397-.007-.795-.01-1.192-.01-35.393 0-64.735 26.403-69.365 60.546-39.719 4.65-70.639 38.51-70.639 79.457 0 28.455 15.512 54.956 40.001 69.207v170.799c0 11.027 8.972 19.998 20 19.998h391.999c11.028 0 20-8.971 20-19.998v-180.137c25.141-18.931 40.001-48.394 40.001-79.869zm-471.999 60v4.59c-12.487-11.258-20.002-27.455-20.002-44.59 0-33.085 26.917-60.001 60.002-60.001 5.523 0 10-4.477 10-10 0-27.571 22.431-50.002 50.001-50.002 2.625 0 5.268.207 7.853.614 2.641.418 5.335-.241 7.486-1.825s3.58-3.963 3.966-6.606c8.687-59.39 60.575-104.177 120.696-104.177 67.269 0 121.995 54.727 121.995 121.994 0 5.523 4.478 10 10 10 44.113 0 80.002 35.889 80.002 80.003 0 20.134-7.62 39.248-20.978 53.853-2.601-8.026-10.141-13.851-19.023-13.851h-20.001v-20.002c0-11.028-8.972-20-20-20h-129.933c-10.011 0-19.299 4.047-26.065 10.762-6.766-6.715-16.053-10.762-26.064-10.762h-29.933c-5.523 0-10 4.477-10 10s4.477 10 10 10h29.933c7.291 0 13.736 4.677 16.064 11.501v192.188c-4.899-2.37-10.364-3.686-16.064-3.686h-129.934v-200.002h10c5.523 0 10-4.477 10-10s-4.477-10-10-10h-10c-11.028 0-20 8.972-20 20v20.002h-20.002c-11.028-.001-19.999 8.97-19.999 19.997zm60.001 180.003h129.934c7.291 0 13.736 4.677 16.064 11.501v8.501l-145.998.001zm311.996-20h-129.933c-5.701 0-11.165 1.316-16.064 3.686v-192.188c2.328-6.823 8.773-11.5 16.064-11.5h129.934v200.002zm-145.998 31.501c2.328-6.823 8.773-11.5 16.064-11.5h129.934v20.001l-145.998.001zm-206-191.502h20.001v160.001 40.003h-20.001zm371.998 200.003v-40.002-160.002l20.001-.001v14.698.043 185.263z" />
		<path d="m216.002 147.746c2.559 0 5.119-.976 7.071-2.929l5.429-5.429v42.108c0 5.523 4.477 10 10 10s10-4.477 10-10v-42.108l5.428 5.428c3.906 3.906 10.236 3.906 14.143 0 3.905-3.905 3.905-10.237 0-14.142l-22.5-22.5c-1.875-1.875-4.419-2.929-7.071-2.929s-5.196 1.054-7.071 2.929l-22.5 22.5c-3.905 3.905-3.905 10.237 0 14.143 1.952 1.953 4.512 2.929 7.071 2.929z" />
		<path d="m316.432 188.567c1.953 1.953 4.512 2.929 7.071 2.929s5.118-.976 7.071-2.929l22.5-22.5c3.905-3.905 3.905-10.237 0-14.143-3.906-3.905-10.236-3.905-14.143 0l-5.429 5.429v-42.108c0-5.523-4.478-10-10-10s-10 4.477-10 10v42.108l-5.429-5.429c-3.906-3.905-10.236-3.905-14.143 0-3.905 3.905-3.905 10.237 0 14.143z" />
		<path d="m155.007 251.998c5.523 0 10-4.477 10-10s-4.477-10-10-10h-.008c-5.523 0-9.996 4.477-9.996 10s4.481 10 10.004 10z" />
	</symbol>
	<symbol id="creditCard" viewBox="0 0 512 512" xmlns="http://www.w3.org/2000/svg">
		<g>
			<path d="M45,506c-21.5,0-39-17.5-39-39V250.4c0-21.5,17.5-39,39-39h47.3l194-194C293.6,10,303.4,6,313.8,6s20.2,4,27.6,11.4
		l153.2,153.2c15.2,15.2,15.2,39.9,0,55.2l-66,66V467c0,21.5-17.5,39-39,39H45z M45,229.4c-11.6,0-21,9.4-21,21V467
		c0,11.6,9.4,21,21,21h344.6c11.6,0,21-9.4,21-21V250.4c0-11.6-9.4-21-21-21H45z M415.1,220.4l3.7,4.2c6.3,7.1,9.8,16.3,9.8,25.8
		v15.9l53.2-53.2c8.2-8.2,8.2-21.5,0-29.7L467,168.5L415.1,220.4z M339.3,211.4h50.4c1.7,0,3.5,0.1,5.3,0.4l2.9,0.4l56.4-56.4
		L424.6,126L339.3,211.4z M313.8,24c-5.6,0-10.9,2.2-14.8,6.1L117.8,211.4h196l98.1-98.1l-83.2-83.2C324.7,26.2,319.5,24,313.8,24z" />
			<rect x="66" y="412.6" width="43.8" height="18" />
			<rect x="152.3" y="412.6" width="43.8" height="18" />
			<rect x="238.5" y="412.6" width="43.8" height="18" />
			<rect x="324.8" y="412.6" width="43.8" height="18" />
			<path d="M66,364.8v-78h89.3v78H66z M84,346.8h53.3v-42H84V346.8z" />
		</g>
	</symbol>
</svg>
