<svg width="0" height="0">
	<symbol xmlns="http://www.w3.org/2000/svg" viewBox="0 0 1475 334.7" id="logo">
		<path d="M229.5,0H8.3A8.28,8.28,0,0,0,0,8.3V318.2a16.54,16.54,0,0,0,26.2,13.4l92.7-66.4,92.7,66.4a16.54,16.54,0,0,0,26.2-13.4V8.3A8.28,8.28,0,0,0,229.5,0Z" />
		<path d="M265.19,97.45V85c2.55-.43,5.85-.9,9.89-1.44s8.18-1.06,12.44-1.59,8-1,11.17-1.28,5.1-.48,5.74-.48,1.8.75,3.51,2.24a34.32,34.32,0,0,1,4.62,4.94c1.38,1.81,2.08,3,2.08,3.67V254.4l60,6.7a5.5,5.5,0,0,0,4.78-2.08q2.24-2.38,4-7.81a81.14,81.14,0,0,0,2.87-14,168.21,168.21,0,0,0,1.12-21q0-13.4-4.79-19.14t-14.67-7.34l-27.75-4.47v-15h23.28c1.28,0,2.55-1,3.83-3a34.25,34.25,0,0,0,3.51-8.45,103.7,103.7,0,0,0,2.71-12.28,91,91,0,0,0,1.12-14.52,177.82,177.82,0,0,0-1.12-23.13q-1.12-7.81-4.15-10.36t-8.45-1.92l-19.78,1.6,2.55-17.87h13.08q16,0,26.8,4.63a32.68,32.68,0,0,1,16.59,16q5.75,11.33,5.74,32.06,0,3.19-3.35,9.57a98.59,98.59,0,0,1-9.25,14,160.66,160.66,0,0,1-13.56,15.32v1.91q18.18,3.19,28.55,15.63t10.37,30.62a120.63,120.63,0,0,1-1,15.64,35.65,35.65,0,0,1-3.51,12.12,25.25,25.25,0,0,1-5.42,6.38q-4.15,3.82-9.41,8a133.88,133.88,0,0,1-11,7.82,84.8,84.8,0,0,1-10.68,5.9A20.89,20.89,0,0,1,369.5,278q-8,0-18.18-.32t-20.73-.95q-10.53-.64-19.78-1.28c-6.17-.42-11.17-1-15-1.59a15,15,0,0,1-3.5-2.4,49.5,49.5,0,0,1-4.95-4.62c-1.59-1.7-2.39-2.87-2.39-3.51V102.23Zm75.6-17.23h8v163a22.13,22.13,0,0,1-1,5.42,50.35,50.35,0,0,1-4.46,9.89H332.18V107.66q0-3.51,2.71-11.17T340.79,80.22Z" />
		<path d="M510.54,278.32q-32.87,0-49.61-16.59t-16.75-52.31a165.68,165.68,0,0,1,2.24-27.6q2.22-13.23,5.42-19.29,2.55-3.84,9.09-9.42a159.25,159.25,0,0,1,14.36-10.84q7.81-5.27,14.51-8.93t9.57-3.67q32.22,0,48.65,17.38t16.43,49.61a176.76,176.76,0,0,1-2.24,29,145.29,145.29,0,0,1-4.78,21.05,65.33,65.33,0,0,1-8.93,8.45q-6.39,5.26-14.2,10.69A148.12,148.12,0,0,1,520,274.81Q513.41,278.32,510.54,278.32Zm1.59-18.18a33.51,33.51,0,0,0,5.11-2.23q3.82-1.92,11.16-5.75,1.59-7.33,3.51-19.46t1.91-31.9q0-15.95-4-27.59t-12-18.18q-8-6.54-20.09-6.54a42.72,42.72,0,0,0-6.38.48A21.33,21.33,0,0,0,485,151q-4.15,2.24-7.18,16.27t-3,37.64q0,22.65,5.74,34.61t14.36,16.27A38.22,38.22,0,0,0,512.13,260.14Z" />
		<path d="M658.27,278.32q-32.87,0-49.61-16.59t-16.75-52.31a165.68,165.68,0,0,1,2.24-27.6q2.22-13.23,5.42-19.29,2.55-3.84,9.09-9.42A159.25,159.25,0,0,1,623,142.27q7.8-5.27,14.51-8.93t9.57-3.67q32.22,0,48.65,17.38t16.43,49.61a176.76,176.76,0,0,1-2.24,29,145.29,145.29,0,0,1-4.78,21.05,65.33,65.33,0,0,1-8.93,8.45q-6.39,5.26-14.2,10.69a148.12,148.12,0,0,1-14.35,8.93Q661.13,278.32,658.27,278.32Zm1.59-18.18a33.12,33.12,0,0,0,5.1-2.23c2.56-1.28,6.27-3.19,11.17-5.75q1.59-7.33,3.51-19.46t1.91-31.9q0-15.95-4-27.59T665.6,155q-8-6.54-20.09-6.54a42.72,42.72,0,0,0-6.38.48,21.33,21.33,0,0,0-6.38,2.07q-4.15,2.24-7.18,16.27t-3,37.64q0,22.65,5.74,34.61t14.35,16.27A38.29,38.29,0,0,0,659.86,260.14Z" />
		<path d="M778.56,157.1v99.53l10.85,4.78v11.81q-9.25,1.59-15.16,2.87t-9.09,1.75a35.35,35.35,0,0,1-4.78.48c-.64,0-1.81-.75-3.51-2.23a63.81,63.81,0,0,1-4.79-4.63c-1.49-1.59-2.23-2.71-2.23-3.35V90.75l-11.48-4.47V74.48c3-.64,6.06-1.22,9.25-1.75s6.22-1.07,9.09-1.6,5.31-1,7.34-1.27a32.73,32.73,0,0,1,4-.48c.85,0,2.08.74,3.67,2.23s3.14,3,4.63,4.63,2.23,2.82,2.23,3.66L777,157.1Zm61.89,121.22c-.43,0-1.55-.69-3.35-2.07s-3.62-2.87-5.43-4.47a27,27,0,0,1-3.66-3.67l-37.33-53.27V204.31q8.3-2.87,16.75-6.38a41.81,41.81,0,0,0,14.2-9.41q5.73-5.9,5.74-16.11,0-8-3-12A15.21,15.21,0,0,0,817,155a25.68,25.68,0,0,0-8.14-1.44q-1.27,0-6.69,3t-12.92,8q-7.5,5-15.79,10.37V157.1h5.1q4.47-4.14,9.89-8.77t10.21-8.93q4.79-4.31,8.13-7t4-2.71q23.61,0,34.61,10.21t11,27.75A37.71,37.71,0,0,1,850.81,188a53.49,53.49,0,0,1-13.87,15,88.16,88.16,0,0,1-16.27,9.57l33.17,43.7,12.76,5.1v11.81q-3.83,1-8,1.75c-2.77.53-5.42,1.06-8,1.6s-4.73.95-6.54,1.27A25.9,25.9,0,0,1,840.45,278.32Z" />
		<path d="M906.19,278.32c-.64,0-1.81-.75-3.51-2.23a67.34,67.34,0,0,1-4.94-4.79c-1.6-1.7-2.39-2.87-2.39-3.51V151.36l-11.17-4.79v-11.8q8-1.59,13.4-2.55t10-1.75a52.91,52.91,0,0,1,5.58-.8c.64,0,1.81.75,3.51,2.23a40.18,40.18,0,0,1,4.63,4.79c1.38,1.7,2.07,2.87,2.07,3.5v12.13q3.51-3.19,8.13-7t9.09-7.34q4.47-3.51,7.66-5.9a20.39,20.39,0,0,1,3.51-2.39q15,0,26,4.94t16.11,17.71q3.51-3.19,7.81-7T1010,138q4-3.51,7-5.9a18.6,18.6,0,0,1,3.34-2.39q16,0,27.28,4.78T1065.05,151q6.06,11.81,6.07,32.54v73l10.84,4.78v11.81q-8,1.59-13.4,2.55l-9.89,1.75a49,49,0,0,1-5.42.8c-.64,0-1.86-.75-3.67-2.23a52.53,52.53,0,0,1-5.1-4.79c-1.6-1.7-2.39-2.87-2.39-3.51V183.58q0-11.49-2.4-17.71t-5.9-8.77a15.52,15.52,0,0,0-6.7-3,35.92,35.92,0,0,0-5.1-.48c-.64,0-2.23.59-4.79,1.76s-5.31,2.6-8.29,4.3-6.7,3.73-11.16,6.06v90.92l10.84,4.78v11.81q-8,1.59-13.4,2.55l-9.89,1.75a49,49,0,0,1-5.42.8c-.64,0-1.86-.75-3.67-2.23a52.53,52.53,0,0,1-5.1-4.79c-1.6-1.7-2.39-2.87-2.39-3.51V183.58q0-15.32-3.67-21.53t-8.14-7.34a30.88,30.88,0,0,0-6.7-1.12q-1.28,0-5.26,1.76t-8.77,4.3q-4.78,2.57-11.8,6.06v90.92l10.84,4.78v11.81q-8,1.59-13.4,2.55l-10.05,1.75A52.91,52.91,0,0,1,906.19,278.32Z" />
		<path d="M1150.26,278.32q-14.67,0-24.4-5.26a34.13,34.13,0,0,1-14.52-14.52,45.12,45.12,0,0,1-4.78-21.05,75.64,75.64,0,0,1,1.75-15.63,42.57,42.57,0,0,1,6.54-15.31L1137.18,218a53.43,53.43,0,0,0-1.59,7.82,68,68,0,0,0-.64,9.41q0,9.26,3.19,14.35t14,5.11q1.59,0,7-2.4t12.92-6.06q7.5-3.66,14.84-7.18v13.08q-7.67,5.75-15.79,11.81t-13.88,10.2Q1151.54,278.33,1150.26,278.32Zm-35.41-71.77,68.91-10.21v14l-50.4,10.53Zm2.24-56.47,4.46-19.46q11.49-.63,20.42-.79t16.91,0q8,.16,16.26.79,4.78.33,10.69,4.63a74.65,74.65,0,0,1,11.48,10.53,71.77,71.77,0,0,1,9.26,12.76q3.66,6.54,3.66,11.32v86.77l11.17,4.78v11.81c-4.26.85-8.45,1.65-12.6,2.39l-10.69,1.91a44.67,44.67,0,0,1-5.74.8q-1,0-3.51-2.07a31.11,31.11,0,0,1-4.62-4.63c-1.39-1.7-2.08-3-2.08-3.83V252.16l-1-3.82v-72.1q0-10.53-4-15.63t-12.28-5.74q-3.2-.31-10.53-.32t-16.27.16q-8.94.16-16.91.48Z" />
		<path d="M1264.82,278.32c-.64,0-1.81-.75-3.51-2.23a67.46,67.46,0,0,1-5-4.79c-1.59-1.7-2.39-2.87-2.39-3.51V150.4l-11.16-3.83v-11.8q7.32-1.59,12.44-2.55l9.41-1.75a44.87,44.87,0,0,1,5.26-.8q1,0,4.15,2.55a58.78,58.78,0,0,1,5.9,5.42c1.8,1.92,2.71,3.19,2.71,3.83l-.64,12.44c3-3,5.79-5.9,8.46-8.77s5.15-5.47,7.49-7.82,4.31-4.19,5.9-5.58,2.61-2.07,3-2.07a44.61,44.61,0,0,1,10.53,1.91q7,1.92,10.85,3.19a44.5,44.5,0,0,1,1.27,5.11,26.4,26.4,0,0,1,.64,4.78,11,11,0,0,1-1.11,3.51q-1.12,2.55-2.56,5.42a52.14,52.14,0,0,1-2.87,5.11,8.35,8.35,0,0,1-2.07,2.55q-2.24-1-5.11-1.92a56.17,56.17,0,0,0-5.9-1.59,28.93,28.93,0,0,0-5.9-.64,11.24,11.24,0,0,0-3.19.8,47.47,47.47,0,0,0-5.1,2.23c-1.92,1-4,2-6.22,3.19s-4.63,2.5-7.18,4v88l16.27,4.79v13.08q-6.39,1-11.17,1.75t-9.89,1.6c-3.4.53-6.33.95-8.77,1.27S1265.45,278.32,1264.82,278.32Z" />
		<path d="M1385.11,157.1v99.53l10.85,4.78v11.81q-9.26,1.59-15.15,2.87t-9.09,1.75a35.46,35.46,0,0,1-4.79.48c-.64,0-1.81-.75-3.51-2.23a63.65,63.65,0,0,1-4.78-4.63c-1.49-1.59-2.24-2.71-2.24-3.35V90.75l-11.48-4.47V74.48q4.47-1,9.25-1.75c3.19-.53,6.22-1.07,9.09-1.6s5.32-1,7.34-1.27a32.81,32.81,0,0,1,4-.48c.85,0,2.07.74,3.67,2.23s3.13,3,4.62,4.63,2.23,2.82,2.23,3.66l-1.59,77.2ZM1447,278.32c-.43,0-1.54-.69-3.35-2.07s-3.62-2.87-5.42-4.47a27.84,27.84,0,0,1-3.67-3.67l-37.32-53.27V204.31q8.28-2.87,16.74-6.38a41.71,41.71,0,0,0,14.2-9.41q5.74-5.9,5.74-16.11,0-8-3-12a15.12,15.12,0,0,0-7.34-5.42,25.67,25.67,0,0,0-8.13-1.44c-.85,0-3.09,1-6.7,3s-7.92,4.68-12.92,8S1385.54,171.35,1380,175V157.1h5.1q4.47-4.14,9.89-8.77t10.21-8.93q4.79-4.31,8.14-7c2.23-1.81,3.55-2.71,4-2.71q23.61,0,34.61,10.21t11,27.75a37.71,37.71,0,0,1-5.58,20.41,53.38,53.38,0,0,1-13.88,15,87.51,87.51,0,0,1-16.27,9.57l33.18,43.7,12.76,5.1v11.81c-2.55.64-5.22,1.22-8,1.75s-5.42,1.06-8,1.6-4.74.95-6.54,1.27A26,26,0,0,1,1447,278.32Z" />
	</symbol>
</svg>
