<svg width="0" height="0">
	<symbol id="facebook" xmlns="http://www.w3.org/2000/svg" viewBox="0 0 320 512">
		<path d="M279.14 288l14.22-92.66h-88.91v-60.13c0-25.35 12.42-50.06 52.24-50.06h40.42V6.26S260.43 0 225.36 0c-73.22 0-121.08 44.38-121.08 124.72v70.62H22.89V288h81.39v224h100.17V288z">
		</path>
	</symbol>
	<symbol id="google" xmlns="http://www.w3.org/2000/svg" viewBox="0 0 488 512">
		<path d="M488 261.8C488 403.3 391.1 504 248 504 110.8 504 0 393.2 0 256S110.8 8 248 8c66.8 0 123 24.5 166.3 64.9l-67.5 64.9C258.5 52.6 94.3 116.6 94.3 256c0 86.5 69.1 156.6 153.7 156.6 98.2 0 135-70.4 140.8-106.9H248v-85.3h236.1c2.3 12.7 3.9 24.9 3.9 41.4z">
		</path>
	</symbol>
	<symbol id="email" xmlns="http://www.w3.org/2000/svg" viewBox="0 0 512 512">
		<path d="M464 64H48C21.49 64 0 85.49 0 112v288c0 26.51 21.49 48 48 48h416c26.51 0 48-21.49 48-48V112c0-26.51-21.49-48-48-48zm0 48v40.805c-22.422 18.259-58.168 46.651-134.587 106.49-16.841 13.247-50.201 45.072-73.413 44.701-23.208.375-56.579-31.459-73.413-44.701C106.18 199.465 70.425 171.067 48 152.805V112h416zM48 400V214.398c22.914 18.251 55.409 43.862 104.938 82.646 21.857 17.205 60.134 55.186 103.062 54.955 42.717.231 80.509-37.199 103.053-54.947 49.528-38.783 82.032-64.401 104.947-82.653V400H48z">
		</path>
	</symbol>
	<symbol id="password" xmlns="http://www.w3.org/2000/svg" viewBox="0 0 24 24">
		<g>
			<path d="m18.75 24h-13.5c-1.24 0-2.25-1.009-2.25-2.25v-10.5c0-1.241 1.01-2.25 2.25-2.25h13.5c1.24 0 2.25 1.009 2.25 2.25v10.5c0 1.241-1.01 2.25-2.25 2.25zm-13.5-13.5c-.413 0-.75.336-.75.75v10.5c0 .414.337.75.75.75h13.5c.413 0 .75-.336.75-.75v-10.5c0-.414-.337-.75-.75-.75z" />
			<path d="m17.25 10.5c-.414 0-.75-.336-.75-.75v-3.75c0-2.481-2.019-4.5-4.5-4.5s-4.5 2.019-4.5 4.5v3.75c0 .414-.336.75-.75.75s-.75-.336-.75-.75v-3.75c0-3.309 2.691-6 6-6s6 2.691 6 6v3.75c0 .414-.336.75-.75.75z" />
			<path d="m12 17c-1.103 0-2-.897-2-2s.897-2 2-2 2 .897 2 2-.897 2-2 2zm0-2.5c-.275 0-.5.224-.5.5s.225.5.5.5.5-.224.5-.5-.225-.5-.5-.5z" />
			<path d="m12 20c-.414 0-.75-.336-.75-.75v-2.75c0-.414.336-.75.75-.75s.75.336.75.75v2.75c0 .414-.336.75-.75.75z" />
		</g>
	</symbol>
	<symbol id="user" xmlns="http://www.w3.org/2000/svg" viewBox="0 0 19.7 19.7">
		<g>
			<path d="M18.2,19.7h-2c0-3.4-2.8-6.1-6.3-6.1s-6.3,2.7-6.3,6.1h-2c0-4.5,3.7-8.1,8.3-8.1S18.2,15.3,18.2,19.7z" />
			<path d="M9.9,11c-3,0-5.5-2.5-5.5-5.5S6.9,0,9.9,0s5.5,2.5,5.5,5.5S12.9,11,9.9,11z M9.9,2c-2,0-3.5,1.6-3.5,3.5
		S7.9,9,9.9,9c1.9,0,3.5-1.6,3.5-3.5S11.8,2,9.9,2z" />
		</g>
		<circle cx="9.9" cy="5.5" r="3.8" />
	</symbol>
	<symbol id="leftArrow" xmlns="http://www.w3.org/2000/svg" viewBox="0 0 320 512">
	<path d="M34.52 239.03L228.87 44.69c9.37-9.37 24.57-9.37 33.94 0l22.67 22.67c9.36 9.36 9.37 24.52.04 33.9L131.49 256l154.02 154.75c9.34 9.38 9.32 24.54-.04 33.9l-22.67 22.67c-9.37 9.37-24.57 9.37-33.94 0L34.52 272.97c-9.37-9.37-9.37-24.57 0-33.94z">
	</path>
	</symbol>
	<symbol id="check" xmlns="http://www.w3.org/2000/svg" viewBox="0 0 300.6 300">
		<path class="cls-1" d="M271,60.82c-40.41,27.1-100,91.47-123.52,142-19.3-27.37-37.16-51.62-65.24-74.54C68.72,117.25,52,137.7,65.56,148.75c30.35,24.78,52.79,48.8,71.93,78.6a13.68,13.68,0,0,0,24.11-2.07C181.8,177.48,233,110.1,270.72,78.45h0C295.29,119.8,299,173.52,271,221c-54.62,92.87-188,92.27-241.88-1S42.63,10,150.4,10a138,138,0,0,1,92,34.3,5,5,0,0,0,6.89-.34l.07-.07a5,5,0,0,0-.34-7.1C222.81,13.78,188.1-.49,148.37,0,33.27,1.47-37.06,125.31,20.5,225c57.73,100,202.07,100,259.8,0C311.45,171.05,305.5,107.67,271,60.82Z" />
	</symbol>
</svg>
