<svg width="0" height="0">
	<symbol id="account" xmlns="http://www.w3.org/2000/svg" viewBox="0 0 451.16 463.8">
		<g>
			<path style="stroke-linecap:round;fill:none;stroke-miterlimit:10;stroke-width:20px;" d="M441.16,453.75c0-95.69-96.52-173.26-215.58-173.26S10,358.06,10,453.75" />
			<circle style="fill:none;stroke-miterlimit:10;stroke-width:20px;" cx="225.58" cy="133.98" r="123.98" />
		</g>
	</symbol>
	<symbol id="cart" xmlns="http://www.w3.org/2000/svg" viewBox="0 0 456.01 430.04">
		<g>
			<path d="M150.11,321.42a54.31,54.31,0,1,0,54.31,54.31,54.3,54.3,0,0,0-54.31-54.31Zm0,88.65a34.34,34.34,0,1,1,34.34-34.34,34.34,34.34,0,0,1-34.34,34.34Z" />
			<path d="M359.76,321.42a54.31,54.31,0,1,0,54.31,54.31,54.31,54.31,0,0,0-54.31-54.31Zm0,88.65a34.34,34.34,0,1,1,34.34-34.34,34.35,34.35,0,0,1-34.34,34.34Z" />
			<path d="M446.12,93.5H93.6L86.41,53.27A60,60,0,0,0,37.8,4.74L11.74.16a10,10,0,1,0-3.5,19.66L34.4,24.41A40,40,0,0,1,66.75,56.76l35.34,199.37a49.81,49.81,0,0,0,49.12,41.23H360.86a49.78,49.78,0,0,0,47.82-35.44L455.6,106.38a10.48,10.48,0,0,0-1.49-8.89,10.14,10.14,0,0,0-8-4ZM389.61,256A29.74,29.74,0,0,1,361,277.29H151.31a29.8,29.8,0,0,1-29.45-24.76L97.2,113.37H432.74Z" />
		</g>
	</symbol>
	<symbol id="search" xmlns="http://www.w3.org/2000/svg" viewBox="0 0 386.84 413.65">
		<g>
			<line style="fill:none;stroke-width:20px;" x1="281.26" y1="305.8" x2="376.84" y2="403.65" />
			<circle style="fill:none;stroke-width:20px;stroke-miterlimit:10;" cx="175.4" cy="175.4" r="165.4" />
			<path style="fill:none;stroke-width:16px;" d="M137.44,63a131.16,131.16,0,0,0-75.19,81" />
		</g>
	</symbol>
	<symbol id="delete" xmlns="http://www.w3.org/2000/svg" viewBox="0 0 408 408">
		<path d="M87.748,388.784c0.461,11.01,9.521,19.699,20.539,19.699h191.911c11.018,0,20.078-8.689,20.539-19.699l13.705-289.316
			H74.043L87.748,388.784z M247.655,171.329c0-4.61,3.738-8.349,8.35-8.349h13.355c4.609,0,8.35,3.738,8.35,8.349v165.293
			c0,4.611-3.738,8.349-8.35,8.349h-13.355c-4.61,0-8.35-3.736-8.35-8.349V171.329z M189.216,171.329
			c0-4.61,3.738-8.349,8.349-8.349h13.355c4.609,0,8.349,3.738,8.349,8.349v165.293c0,4.611-3.737,8.349-8.349,8.349h-13.355
			c-4.61,0-8.349-3.736-8.349-8.349V171.329L189.216,171.329z M130.775,171.329c0-4.61,3.738-8.349,8.349-8.349h13.356
			c4.61,0,8.349,3.738,8.349,8.349v165.293c0,4.611-3.738,8.349-8.349,8.349h-13.356c-4.61,0-8.349-3.736-8.349-8.349V171.329z" />
		<path d="M343.567,21.043h-88.535V4.305c0-2.377-1.927-4.305-4.305-4.305h-92.971c-2.377,0-4.304,1.928-4.304,4.305v16.737H64.916
			c-7.125,0-12.9,5.776-12.9,12.901V74.47h304.451V33.944C356.467,26.819,350.692,21.043,343.567,21.043z" />
	</symbol>
	<symbol id="logout" xmlns="http://www.w3.org/2000/svg" viewBox="0 0 325.214 325.214">
		<path d="M288.777,93.565c-15.313-23.641-36.837-42.476-62.243-54.472c-1.616-0.763-3.109-1.134-4.564-1.134
		c-1.969,0-8.392,0.833-8.392,11.541v17.75c0,8.998,5.479,13.113,7.159,14.16c32.613,20.33,52.083,55.317,52.083,93.59
		c0,60.772-49.442,110.214-110.214,110.214S52.393,235.772,52.393,175c0-38.872,19.942-74.144,53.346-94.353
		c4.475-2.707,6.839-7.426,6.839-13.647V49c0-7.959-5.077-10.783-9.424-10.783c-1.714,0-3.542,0.422-5.144,1.188
		C72.781,51.471,51.42,70.305,36.237,93.872C20.638,118.084,12.393,146.137,12.393,175c0,82.828,67.386,150.214,150.214,150.214
		S312.821,257.828,312.821,175C312.821,146.008,304.507,117.848,288.777,93.565z" />
		<path d="M152.579,117h21c5.514,0,10-4.486,10-10V10c0-5.514-4.486-10-10-10h-21c-5.514,0-10,4.486-10,10v97
		C142.579,112.514,147.064,117,152.579,117z" />
		</symbol>
	<symbol id="user" xmlns="http://www.w3.org/2000/svg" viewBox="0 0 1000 1000">
		<path d="M500,10C228.8,10,10,228.8,10,500c0,271.3,218.8,490,490,490c271.3,0,490-218.8,490-490C990,228.8,771.3,10,500,10z M804.5,822C794,657.5,619,613.8,619,613.8s106.8-71.8,68.3-217c-19.3-75.3-91-131.3-189-131.3c-98,0-169.7,56-189,131.3c-38.5,145.2,68.2,217,68.2,217S202.5,652.3,192,822C109.7,739.7,57.3,626,57.3,500C57.3,255,255,57.3,500,57.3C745,57.3,942.8,255,942.8,500C942.8,626,890.2,739.7,804.5,822z" />
	</symbol>
	</svg>
