<svg xmlns="http://www.w3.org/2000/svg" width="0" height="0">
	<!-- Logo -->
	<symbol viewBox="0 0 1475 334.7" id="logo">
		<path d="M229.5,0H8.3A8.28,8.28,0,0,0,0,8.3V318.2a16.54,16.54,0,0,0,26.2,13.4l92.7-66.4,92.7,66.4a16.54,16.54,0,0,0,26.2-13.4V8.3A8.28,8.28,0,0,0,229.5,0Z" />
		<path d="M265.19,97.45V85c2.55-.43,5.85-.9,9.89-1.44s8.18-1.06,12.44-1.59,8-1,11.17-1.28,5.1-.48,5.74-.48,1.8.75,3.51,2.24a34.32,34.32,0,0,1,4.62,4.94c1.38,1.81,2.08,3,2.08,3.67V254.4l60,6.7a5.5,5.5,0,0,0,4.78-2.08q2.24-2.38,4-7.81a81.14,81.14,0,0,0,2.87-14,168.21,168.21,0,0,0,1.12-21q0-13.4-4.79-19.14t-14.67-7.34l-27.75-4.47v-15h23.28c1.28,0,2.55-1,3.83-3a34.25,34.25,0,0,0,3.51-8.45,103.7,103.7,0,0,0,2.71-12.28,91,91,0,0,0,1.12-14.52,177.82,177.82,0,0,0-1.12-23.13q-1.12-7.81-4.15-10.36t-8.45-1.92l-19.78,1.6,2.55-17.87h13.08q16,0,26.8,4.63a32.68,32.68,0,0,1,16.59,16q5.75,11.33,5.74,32.06,0,3.19-3.35,9.57a98.59,98.59,0,0,1-9.25,14,160.66,160.66,0,0,1-13.56,15.32v1.91q18.18,3.19,28.55,15.63t10.37,30.62a120.63,120.63,0,0,1-1,15.64,35.65,35.65,0,0,1-3.51,12.12,25.25,25.25,0,0,1-5.42,6.38q-4.15,3.82-9.41,8a133.88,133.88,0,0,1-11,7.82,84.8,84.8,0,0,1-10.68,5.9A20.89,20.89,0,0,1,369.5,278q-8,0-18.18-.32t-20.73-.95q-10.53-.64-19.78-1.28c-6.17-.42-11.17-1-15-1.59a15,15,0,0,1-3.5-2.4,49.5,49.5,0,0,1-4.95-4.62c-1.59-1.7-2.39-2.87-2.39-3.51V102.23Zm75.6-17.23h8v163a22.13,22.13,0,0,1-1,5.42,50.35,50.35,0,0,1-4.46,9.89H332.18V107.66q0-3.51,2.71-11.17T340.79,80.22Z" />
		<path d="M510.54,278.32q-32.87,0-49.61-16.59t-16.75-52.31a165.68,165.68,0,0,1,2.24-27.6q2.22-13.23,5.42-19.29,2.55-3.84,9.09-9.42a159.25,159.25,0,0,1,14.36-10.84q7.81-5.27,14.51-8.93t9.57-3.67q32.22,0,48.65,17.38t16.43,49.61a176.76,176.76,0,0,1-2.24,29,145.29,145.29,0,0,1-4.78,21.05,65.33,65.33,0,0,1-8.93,8.45q-6.39,5.26-14.2,10.69A148.12,148.12,0,0,1,520,274.81Q513.41,278.32,510.54,278.32Zm1.59-18.18a33.51,33.51,0,0,0,5.11-2.23q3.82-1.92,11.16-5.75,1.59-7.33,3.51-19.46t1.91-31.9q0-15.95-4-27.59t-12-18.18q-8-6.54-20.09-6.54a42.72,42.72,0,0,0-6.38.48A21.33,21.33,0,0,0,485,151q-4.15,2.24-7.18,16.27t-3,37.64q0,22.65,5.74,34.61t14.36,16.27A38.22,38.22,0,0,0,512.13,260.14Z" />
		<path d="M658.27,278.32q-32.87,0-49.61-16.59t-16.75-52.31a165.68,165.68,0,0,1,2.24-27.6q2.22-13.23,5.42-19.29,2.55-3.84,9.09-9.42A159.25,159.25,0,0,1,623,142.27q7.8-5.27,14.51-8.93t9.57-3.67q32.22,0,48.65,17.38t16.43,49.61a176.76,176.76,0,0,1-2.24,29,145.29,145.29,0,0,1-4.78,21.05,65.33,65.33,0,0,1-8.93,8.45q-6.39,5.26-14.2,10.69a148.12,148.12,0,0,1-14.35,8.93Q661.13,278.32,658.27,278.32Zm1.59-18.18a33.12,33.12,0,0,0,5.1-2.23c2.56-1.28,6.27-3.19,11.17-5.75q1.59-7.33,3.51-19.46t1.91-31.9q0-15.95-4-27.59T665.6,155q-8-6.54-20.09-6.54a42.72,42.72,0,0,0-6.38.48,21.33,21.33,0,0,0-6.38,2.07q-4.15,2.24-7.18,16.27t-3,37.64q0,22.65,5.74,34.61t14.35,16.27A38.29,38.29,0,0,0,659.86,260.14Z" />
		<path d="M778.56,157.1v99.53l10.85,4.78v11.81q-9.25,1.59-15.16,2.87t-9.09,1.75a35.35,35.35,0,0,1-4.78.48c-.64,0-1.81-.75-3.51-2.23a63.81,63.81,0,0,1-4.79-4.63c-1.49-1.59-2.23-2.71-2.23-3.35V90.75l-11.48-4.47V74.48c3-.64,6.06-1.22,9.25-1.75s6.22-1.07,9.09-1.6,5.31-1,7.34-1.27a32.73,32.73,0,0,1,4-.48c.85,0,2.08.74,3.67,2.23s3.14,3,4.63,4.63,2.23,2.82,2.23,3.66L777,157.1Zm61.89,121.22c-.43,0-1.55-.69-3.35-2.07s-3.62-2.87-5.43-4.47a27,27,0,0,1-3.66-3.67l-37.33-53.27V204.31q8.3-2.87,16.75-6.38a41.81,41.81,0,0,0,14.2-9.41q5.73-5.9,5.74-16.11,0-8-3-12A15.21,15.21,0,0,0,817,155a25.68,25.68,0,0,0-8.14-1.44q-1.27,0-6.69,3t-12.92,8q-7.5,5-15.79,10.37V157.1h5.1q4.47-4.14,9.89-8.77t10.21-8.93q4.79-4.31,8.13-7t4-2.71q23.61,0,34.61,10.21t11,27.75A37.71,37.71,0,0,1,850.81,188a53.49,53.49,0,0,1-13.87,15,88.16,88.16,0,0,1-16.27,9.57l33.17,43.7,12.76,5.1v11.81q-3.83,1-8,1.75c-2.77.53-5.42,1.06-8,1.6s-4.73.95-6.54,1.27A25.9,25.9,0,0,1,840.45,278.32Z" />
		<path d="M906.19,278.32c-.64,0-1.81-.75-3.51-2.23a67.34,67.34,0,0,1-4.94-4.79c-1.6-1.7-2.39-2.87-2.39-3.51V151.36l-11.17-4.79v-11.8q8-1.59,13.4-2.55t10-1.75a52.91,52.91,0,0,1,5.58-.8c.64,0,1.81.75,3.51,2.23a40.18,40.18,0,0,1,4.63,4.79c1.38,1.7,2.07,2.87,2.07,3.5v12.13q3.51-3.19,8.13-7t9.09-7.34q4.47-3.51,7.66-5.9a20.39,20.39,0,0,1,3.51-2.39q15,0,26,4.94t16.11,17.71q3.51-3.19,7.81-7T1010,138q4-3.51,7-5.9a18.6,18.6,0,0,1,3.34-2.39q16,0,27.28,4.78T1065.05,151q6.06,11.81,6.07,32.54v73l10.84,4.78v11.81q-8,1.59-13.4,2.55l-9.89,1.75a49,49,0,0,1-5.42.8c-.64,0-1.86-.75-3.67-2.23a52.53,52.53,0,0,1-5.1-4.79c-1.6-1.7-2.39-2.87-2.39-3.51V183.58q0-11.49-2.4-17.71t-5.9-8.77a15.52,15.52,0,0,0-6.7-3,35.92,35.92,0,0,0-5.1-.48c-.64,0-2.23.59-4.79,1.76s-5.31,2.6-8.29,4.3-6.7,3.73-11.16,6.06v90.92l10.84,4.78v11.81q-8,1.59-13.4,2.55l-9.89,1.75a49,49,0,0,1-5.42.8c-.64,0-1.86-.75-3.67-2.23a52.53,52.53,0,0,1-5.1-4.79c-1.6-1.7-2.39-2.87-2.39-3.51V183.58q0-15.32-3.67-21.53t-8.14-7.34a30.88,30.88,0,0,0-6.7-1.12q-1.28,0-5.26,1.76t-8.77,4.3q-4.78,2.57-11.8,6.06v90.92l10.84,4.78v11.81q-8,1.59-13.4,2.55l-10.05,1.75A52.91,52.91,0,0,1,906.19,278.32Z" />
		<path d="M1150.26,278.32q-14.67,0-24.4-5.26a34.13,34.13,0,0,1-14.52-14.52,45.12,45.12,0,0,1-4.78-21.05,75.64,75.64,0,0,1,1.75-15.63,42.57,42.57,0,0,1,6.54-15.31L1137.18,218a53.43,53.43,0,0,0-1.59,7.82,68,68,0,0,0-.64,9.41q0,9.26,3.19,14.35t14,5.11q1.59,0,7-2.4t12.92-6.06q7.5-3.66,14.84-7.18v13.08q-7.67,5.75-15.79,11.81t-13.88,10.2Q1151.54,278.33,1150.26,278.32Zm-35.41-71.77,68.91-10.21v14l-50.4,10.53Zm2.24-56.47,4.46-19.46q11.49-.63,20.42-.79t16.91,0q8,.16,16.26.79,4.78.33,10.69,4.63a74.65,74.65,0,0,1,11.48,10.53,71.77,71.77,0,0,1,9.26,12.76q3.66,6.54,3.66,11.32v86.77l11.17,4.78v11.81c-4.26.85-8.45,1.65-12.6,2.39l-10.69,1.91a44.67,44.67,0,0,1-5.74.8q-1,0-3.51-2.07a31.11,31.11,0,0,1-4.62-4.63c-1.39-1.7-2.08-3-2.08-3.83V252.16l-1-3.82v-72.1q0-10.53-4-15.63t-12.28-5.74q-3.2-.31-10.53-.32t-16.27.16q-8.94.16-16.91.48Z" />
		<path d="M1264.82,278.32c-.64,0-1.81-.75-3.51-2.23a67.46,67.46,0,0,1-5-4.79c-1.59-1.7-2.39-2.87-2.39-3.51V150.4l-11.16-3.83v-11.8q7.32-1.59,12.44-2.55l9.41-1.75a44.87,44.87,0,0,1,5.26-.8q1,0,4.15,2.55a58.78,58.78,0,0,1,5.9,5.42c1.8,1.92,2.71,3.19,2.71,3.83l-.64,12.44c3-3,5.79-5.9,8.46-8.77s5.15-5.47,7.49-7.82,4.31-4.19,5.9-5.58,2.61-2.07,3-2.07a44.61,44.61,0,0,1,10.53,1.91q7,1.92,10.85,3.19a44.5,44.5,0,0,1,1.27,5.11,26.4,26.4,0,0,1,.64,4.78,11,11,0,0,1-1.11,3.51q-1.12,2.55-2.56,5.42a52.14,52.14,0,0,1-2.87,5.11,8.35,8.35,0,0,1-2.07,2.55q-2.24-1-5.11-1.92a56.17,56.17,0,0,0-5.9-1.59,28.93,28.93,0,0,0-5.9-.64,11.24,11.24,0,0,0-3.19.8,47.47,47.47,0,0,0-5.1,2.23c-1.92,1-4,2-6.22,3.19s-4.63,2.5-7.18,4v88l16.27,4.79v13.08q-6.39,1-11.17,1.75t-9.89,1.6c-3.4.53-6.33.95-8.77,1.27S1265.45,278.32,1264.82,278.32Z" />
		<path d="M1385.11,157.1v99.53l10.85,4.78v11.81q-9.26,1.59-15.15,2.87t-9.09,1.75a35.46,35.46,0,0,1-4.79.48c-.64,0-1.81-.75-3.51-2.23a63.65,63.65,0,0,1-4.78-4.63c-1.49-1.59-2.24-2.71-2.24-3.35V90.75l-11.48-4.47V74.48q4.47-1,9.25-1.75c3.19-.53,6.22-1.07,9.09-1.6s5.32-1,7.34-1.27a32.81,32.81,0,0,1,4-.48c.85,0,2.07.74,3.67,2.23s3.13,3,4.62,4.63,2.23,2.82,2.23,3.66l-1.59,77.2ZM1447,278.32c-.43,0-1.54-.69-3.35-2.07s-3.62-2.87-5.42-4.47a27.84,27.84,0,0,1-3.67-3.67l-37.32-53.27V204.31q8.28-2.87,16.74-6.38a41.71,41.71,0,0,0,14.2-9.41q5.74-5.9,5.74-16.11,0-8-3-12a15.12,15.12,0,0,0-7.34-5.42,25.67,25.67,0,0,0-8.13-1.44c-.85,0-3.09,1-6.7,3s-7.92,4.68-12.92,8S1385.54,171.35,1380,175V157.1h5.1q4.47-4.14,9.89-8.77t10.21-8.93q4.79-4.31,8.14-7c2.23-1.81,3.55-2.71,4-2.71q23.61,0,34.61,10.21t11,27.75a37.71,37.71,0,0,1-5.58,20.41,53.38,53.38,0,0,1-13.88,15,87.51,87.51,0,0,1-16.27,9.57l33.18,43.7,12.76,5.1v11.81c-2.55.64-5.22,1.22-8,1.75s-5.42,1.06-8,1.6-4.74.95-6.54,1.27A26,26,0,0,1,1447,278.32Z" />
	</symbol>
	<symbol viewBox="0 0 237.8 334.72" id="logoIconOnly">
		<path class="cls-1" d="M229.5,0H8.3A8.28,8.28,0,0,0,0,8.26V318.2a16.54,16.54,0,0,0,26.2,13.4l92.7-66.4,92.7,66.4a16.54,16.54,0,0,0,26.2-13.4V8.3A8.28,8.28,0,0,0,229.54,0Z" />
	</symbol>
	<symbol viewBox="0 0 1207.97 208.97" id="logoTextOnly">
		<path class="cls-1" d="M0,28.07V15.62c2.55-.43,5.85-.9,9.89-1.44s8.18-1.06,12.44-1.59,8-1,11.17-1.28,5.1-.48,5.74-.48,1.8.75,3.51,2.24A34.28,34.28,0,0,1,47.37,18c1.38,1.81,2.08,3,2.08,3.67V185l60,6.7a5.51,5.51,0,0,0,4.78-2.08c1.49-1.59,2.83-4.19,4-7.81a80.51,80.51,0,0,0,2.87-14,167.42,167.42,0,0,0,1.12-21q0-13.4-4.79-19.14t-14.67-7.34L75,115.88v-15H98.29c1.28,0,2.55-1,3.83-3a34.54,34.54,0,0,0,3.51-8.45,103.06,103.06,0,0,0,2.71-12.28,90.51,90.51,0,0,0,1.12-14.52,177,177,0,0,0-1.12-23.13q-1.12-7.82-4.15-10.36t-8.45-1.92L76,28.82,78.51,11H91.59q16,0,26.8,4.63a32.66,32.66,0,0,1,16.59,16q5.75,11.33,5.74,32.06,0,3.19-3.35,9.57a98.55,98.55,0,0,1-9.25,14,160.33,160.33,0,0,1-13.56,15.32v1.91q18.18,3.19,28.55,15.63t10.37,30.62a120.32,120.32,0,0,1-1,15.64A35.66,35.66,0,0,1,149,178.45a25.3,25.3,0,0,1-5.42,6.38q-4.16,3.82-9.41,8a132.66,132.66,0,0,1-11,7.82,84.7,84.7,0,0,1-10.68,5.9,20.8,20.8,0,0,1-8.15,2.07q-8,0-18.18-.32t-20.73-1q-10.53-.65-19.78-1.28c-6.17-.42-11.17-1-15-1.59a15.21,15.21,0,0,1-3.5-2.4,50.31,50.31,0,0,1-4.95-4.62c-1.59-1.7-2.39-2.87-2.39-3.51V32.85ZM75.6,10.84h8v163a22.24,22.24,0,0,1-1,5.42,50.53,50.53,0,0,1-4.46,9.89H67V38.28q0-3.51,2.71-11.17T75.6,10.84Z" />
		<path class="cls-1" d="M245.35,208.94q-32.86,0-49.61-16.59T179,140a165.67,165.67,0,0,1,2.24-27.6q2.22-13.23,5.42-19.29,2.55-3.84,9.09-9.42A159.28,159.28,0,0,1,210.1,72.89q7.82-5.26,14.51-8.93t9.57-3.67q32.22,0,48.65,17.38t16.43,49.61a177.16,177.16,0,0,1-2.24,29,145.72,145.72,0,0,1-4.78,21.05,64.91,64.91,0,0,1-8.93,8.45q-6.39,5.26-14.2,10.69a146.93,146.93,0,0,1-14.3,9Q248.22,208.94,245.35,208.94Zm1.59-18.18a34.07,34.07,0,0,0,5.11-2.23q3.82-1.92,11.16-5.75,1.59-7.34,3.51-19.46t1.91-31.9q0-15.94-4-27.59t-12-18.18q-8-6.54-20.09-6.54a42.52,42.52,0,0,0-6.38.48,21.23,21.23,0,0,0-6.35,2q-4.16,2.23-7.18,16.27t-3,37.64q0,22.65,5.74,34.61t14.36,16.27A38.25,38.25,0,0,0,246.94,190.76Z" />
		<path class="cls-1" d="M393.08,208.94q-32.86,0-49.61-16.59T326.72,140a165.67,165.67,0,0,1,2.24-27.6q2.22-13.23,5.42-19.29,2.55-3.84,9.09-9.42a159,159,0,0,1,14.34-10.84q7.8-5.26,14.51-8.93t9.57-3.67q32.22,0,48.65,17.38T447,127.28a177.16,177.16,0,0,1-2.24,29A145.72,145.72,0,0,1,440,177.33a64.91,64.91,0,0,1-8.93,8.45q-6.39,5.26-14.2,10.69a147.39,147.39,0,0,1-14.35,8.93Q395.95,208.94,393.08,208.94Zm1.59-18.18a32.56,32.56,0,0,0,5.1-2.23c2.56-1.28,6.27-3.19,11.17-5.75q1.59-7.34,3.51-19.46t1.91-31.9q0-15.94-4-27.59T400.41,85.62q-8-6.54-20.09-6.54a42.52,42.52,0,0,0-6.38.48,21.4,21.4,0,0,0-6.38,2.07q-4.15,2.24-7.18,16.27t-3,37.64q0,22.65,5.74,34.61t14.35,16.27a38.32,38.32,0,0,0,17.2,4.34Z" />
		<path class="cls-1" d="M513.37,87.72v99.53L524.22,192v11.81q-9.26,1.59-15.16,2.87c-3.94.85-7,1.44-9.09,1.75a34.87,34.87,0,0,1-4.78.48c-.64,0-1.81-.75-3.51-2.23a61.59,61.59,0,0,1-4.79-4.63c-1.49-1.59-2.23-2.71-2.23-3.35V21.37L473.18,16.9V5.1c3-.64,6.06-1.22,9.25-1.75s6.22-1.07,9.09-1.6,5.31-1,7.34-1.27a33.58,33.58,0,0,1,4-.48c.85,0,2.08.74,3.67,2.23s3.14,3,4.63,4.63,2.23,2.82,2.23,3.66l-1.58,77.2Zm61.89,121.22c-.43,0-1.55-.69-3.35-2.07s-3.62-2.87-5.43-4.47a27,27,0,0,1-3.66-3.67l-37.33-53.27V134.93q8.29-2.87,16.75-6.38a41.81,41.81,0,0,0,14.2-9.41q5.73-5.9,5.74-16.11,0-8-3-12a15.16,15.16,0,0,0-7.37-5.41,25.68,25.68,0,0,0-8.14-1.44q-1.27,0-6.69,3t-12.92,8q-7.5,5-15.79,10.37V87.72h5.1q4.47-4.14,9.89-8.77T533.47,70q4.78-4.3,8.13-7c2.23-1.79,3.56-2.7,4-2.71q23.61,0,34.61,10.21t11,27.75a37.73,37.73,0,0,1-5.59,20.35,53.63,53.63,0,0,1-13.87,15,88.58,88.58,0,0,1-16.27,9.57l33.17,43.7,12.76,5.1V203.8q-3.82,1-8,1.75c-2.77.53-5.42,1.06-8,1.6s-4.73.95-6.54,1.27A26,26,0,0,1,575.26,208.94Z" />
		<path class="cls-1" d="M641,208.94c-.64,0-1.81-.75-3.51-2.23a65.7,65.7,0,0,1-4.94-4.79c-1.6-1.7-2.39-2.87-2.39-3.51V82L619,77.19V65.39q8-1.59,13.4-2.55l10-1.75a52.41,52.41,0,0,1,5.58-.8c.64,0,1.81.75,3.51,2.23a41.08,41.08,0,0,1,4.63,4.79c1.38,1.7,2.07,2.87,2.07,3.5V82.94q3.51-3.19,8.13-7t9.09-7.34q4.47-3.51,7.66-5.9a19.94,19.94,0,0,1,3.51-2.39q15,0,26,4.94T728.68,83q3.51-3.19,7.81-7t8.32-7.34q4-3.51,7-5.9a18.31,18.31,0,0,1,3.34-2.39q16,0,27.28,4.78t17.43,16.51q6.06,11.8,6.07,32.54v73l10.84,4.78v11.81q-8,1.59-13.4,2.55l-9.89,1.75a49.51,49.51,0,0,1-5.42.8c-.64,0-1.86-.75-3.67-2.23a52.46,52.46,0,0,1-5.1-4.79c-1.6-1.7-2.39-2.87-2.39-3.51V114.2q0-11.49-2.4-17.71t-5.9-8.77a15.54,15.54,0,0,0-6.7-3,36.37,36.37,0,0,0-5.1-.48c-.64,0-2.23.59-4.79,1.76s-5.31,2.6-8.29,4.3S737,94,732.56,96.36v90.92l10.84,4.78v11.81q-8,1.59-13.4,2.55l-9.89,1.75a49.51,49.51,0,0,1-5.42.8c-.64,0-1.86-.75-3.67-2.23a52.46,52.46,0,0,1-5.1-4.79c-1.6-1.7-2.39-2.87-2.39-3.51V114.2q0-15.32-3.67-21.53t-8.14-7.34a31.07,31.07,0,0,0-6.7-1.12c-.85,0-2.61.59-5.26,1.76s-5.58,2.61-8.77,4.3-7.12,3.73-11.8,6.06v90.92L670,192v11.81q-8,1.59-13.4,2.55l-10,1.75A52.41,52.41,0,0,1,641,208.94Z" />
		<path class="cls-1" d="M885.07,208.94q-14.67,0-24.4-5.26a34,34,0,0,1-14.52-14.52,45.21,45.21,0,0,1-4.78-21,76.08,76.08,0,0,1,1.75-15.63,42.49,42.49,0,0,1,6.54-15.31L872,148.62a53.39,53.39,0,0,0-1.59,7.82,68.87,68.87,0,0,0-.64,9.41q0,9.26,3.19,14.35t14,5.11q1.59,0,7-2.4t12.92-6.06q7.5-3.66,14.84-7.18v13.08l-15.79,11.81q-8.11,6.06-13.88,10.2C888.25,207.55,885.92,209,885.07,208.94Zm-35.41-71.77L918.57,127v14l-50.4,10.53ZM851.9,80.7l4.46-19.46q11.49-.63,20.42-.79t16.91,0q8,.16,16.26.79,4.78.33,10.69,4.63A74.89,74.89,0,0,1,932.12,76.4a71.63,71.63,0,0,1,9.26,12.76Q945,95.7,945,100.48v86.77L956.21,192v11.81c-4.26.85-8.45,1.65-12.6,2.39l-10.69,1.91a44.28,44.28,0,0,1-5.74.8q-1,0-3.51-2.07a31.11,31.11,0,0,1-4.62-4.63c-1.39-1.7-2.08-3-2.08-3.83V182.78L916,179v-72.1q0-10.53-4-15.63t-12.28-5.74c-2.13-.21-5.64-.31-10.53-.32s-10.31,0-16.27.16-11.6.27-16.91.48Z" />
		<path class="cls-1" d="M999.63,208.94c-.64,0-1.81-.75-3.51-2.23a66.53,66.53,0,0,1-5-4.79c-1.59-1.7-2.39-2.87-2.39-3.51V81l-11.16-3.83V65.39q7.32-1.59,12.44-2.55l9.41-1.75a44.52,44.52,0,0,1,5.26-.8q1,0,4.15,2.55a58.21,58.21,0,0,1,5.9,5.42c1.8,1.92,2.71,3.19,2.71,3.83l-.64,12.44c3-3,5.79-5.9,8.46-8.77s5.15-5.47,7.49-7.82,4.31-4.19,5.9-5.58,2.61-2.07,3-2.07a44.39,44.39,0,0,1,10.53,1.91q7,1.92,10.85,3.19a44.87,44.87,0,0,1,1.27,5.11,26.54,26.54,0,0,1,.64,4.78,11.15,11.15,0,0,1-1.11,3.51q-1.12,2.55-2.56,5.42a52.2,52.2,0,0,1-2.87,5.11,8.25,8.25,0,0,1-2.07,2.55,48.63,48.63,0,0,0-5.11-1.92,55.25,55.25,0,0,0-5.9-1.59,28.58,28.58,0,0,0-5.9-.64,11.32,11.32,0,0,0-3.19.8,47.13,47.13,0,0,0-5.1,2.23c-1.92,1-4,2-6.22,3.19s-4.63,2.5-7.18,4v88l16.27,4.79v13.08l-11.17,1.75c-3.19.5-6.48,1-9.89,1.6s-6.33,1-8.77,1.27S1000.26,208.94,999.63,208.94Z" />
		<path class="cls-1" d="M1119.92,87.72v99.53l10.85,4.78v11.81q-9.26,1.59-15.15,2.87c-3.93.85-7,1.44-9.09,1.75a34.85,34.85,0,0,1-4.79.48c-.64,0-1.81-.75-3.51-2.23a63.28,63.28,0,0,1-4.78-4.63c-1.49-1.59-2.24-2.71-2.24-3.35V21.37l-11.48-4.47V5.1q4.47-1,9.25-1.75c3.19-.53,6.22-1.07,9.09-1.6s5.32-1,7.34-1.27a33.58,33.58,0,0,1,4-.48c.85,0,2.07.74,3.67,2.23s3.13,3,4.62,4.63,2.23,2.82,2.23,3.66l-1.59,77.2Zm61.89,121.22c-.43,0-1.54-.69-3.35-2.07s-3.62-2.87-5.42-4.47a28.92,28.92,0,0,1-3.67-3.67l-37.32-53.27V134.93q8.28-2.87,16.74-6.38a41.81,41.81,0,0,0,14.2-9.41q5.74-5.9,5.74-16.11,0-8-3-12a15.11,15.11,0,0,0-7.34-5.42,25.57,25.57,0,0,0-8.13-1.44c-.85,0-3.09,1-6.7,3s-7.92,4.68-12.92,8-10.29,6.8-15.83,10.45V87.72h5.1q4.47-4.14,9.89-8.77T1140,70q4.79-4.3,8.14-7c2.23-1.81,3.55-2.71,4-2.71q23.61,0,34.61,10.21t11,27.75a37.66,37.66,0,0,1-5.58,20.41,53.38,53.38,0,0,1-13.88,15,87.14,87.14,0,0,1-16.27,9.57l33.18,43.7,12.76,5.1v11.81q-3.83,1-8,1.75c-2.78.53-5.42,1.06-8,1.6s-4.74.95-6.54,1.27A25.77,25.77,0,0,1,1181.81,208.94Z" />
	</symbol>
	<!-- Account -->
	<symbol id="facebook" viewBox="0 0 320 512">
		<path d="M279.14 288l14.22-92.66h-88.91v-60.13c0-25.35 12.42-50.06 52.24-50.06h40.42V6.26S260.43 0 225.36 0c-73.22 0-121.08 44.38-121.08 124.72v70.62H22.89V288h81.39v224h100.17V288z">
		</path>
	</symbol>
	<symbol id="google" viewBox="0 0 488 512">
		<path d="M488 261.8C488 403.3 391.1 504 248 504 110.8 504 0 393.2 0 256S110.8 8 248 8c66.8 0 123 24.5 166.3 64.9l-67.5 64.9C258.5 52.6 94.3 116.6 94.3 256c0 86.5 69.1 156.6 153.7 156.6 98.2 0 135-70.4 140.8-106.9H248v-85.3h236.1c2.3 12.7 3.9 24.9 3.9 41.4z">
		</path>
	</symbol>
	<symbol id="email" viewBox="0 0 512 512">
		<path d="M464 64H48C21.49 64 0 85.49 0 112v288c0 26.51 21.49 48 48 48h416c26.51 0 48-21.49 48-48V112c0-26.51-21.49-48-48-48zm0 48v40.805c-22.422 18.259-58.168 46.651-134.587 106.49-16.841 13.247-50.201 45.072-73.413 44.701-23.208.375-56.579-31.459-73.413-44.701C106.18 199.465 70.425 171.067 48 152.805V112h416zM48 400V214.398c22.914 18.251 55.409 43.862 104.938 82.646 21.857 17.205 60.134 55.186 103.062 54.955 42.717.231 80.509-37.199 103.053-54.947 49.528-38.783 82.032-64.401 104.947-82.653V400H48z">
		</path>
	</symbol>
	<symbol id="password" viewBox="0 0 24 24">
		<path d="m18.75 24h-13.5c-1.24 0-2.25-1.009-2.25-2.25v-10.5c0-1.241 1.01-2.25 2.25-2.25h13.5c1.24 0 2.25 1.009 2.25 2.25v10.5c0 1.241-1.01 2.25-2.25 2.25zm-13.5-13.5c-.413 0-.75.336-.75.75v10.5c0 .414.337.75.75.75h13.5c.413 0 .75-.336.75-.75v-10.5c0-.414-.337-.75-.75-.75z" />
		<path d="m17.25 10.5c-.414 0-.75-.336-.75-.75v-3.75c0-2.481-2.019-4.5-4.5-4.5s-4.5 2.019-4.5 4.5v3.75c0 .414-.336.75-.75.75s-.75-.336-.75-.75v-3.75c0-3.309 2.691-6 6-6s6 2.691 6 6v3.75c0 .414-.336.75-.75.75z" />
		<path d="m12 17c-1.103 0-2-.897-2-2s.897-2 2-2 2 .897 2 2-.897 2-2 2zm0-2.5c-.275 0-.5.224-.5.5s.225.5.5.5.5-.224.5-.5-.225-.5-.5-.5z" />
		<path d="m12 20c-.414 0-.75-.336-.75-.75v-2.75c0-.414.336-.75.75-.75s.75.336.75.75v2.75c0 .414-.336.75-.75.75z" />
	</symbol>
	<symbol id="user" viewBox="0 0 19.7 19.7">
		<path d="M18.2,19.7h-2c0-3.4-2.8-6.1-6.3-6.1s-6.3,2.7-6.3,6.1h-2c0-4.5,3.7-8.1,8.3-8.1S18.2,15.3,18.2,19.7z" />
		<path d="M9.9,11c-3,0-5.5-2.5-5.5-5.5S6.9,0,9.9,0s5.5,2.5,5.5,5.5S12.9,11,9.9,11z M9.9,2c-2,0-3.5,1.6-3.5,3.5
		S7.9,9,9.9,9c1.9,0,3.5-1.6,3.5-3.5S11.8,2,9.9,2z" />
		<circle cx="9.9" cy="5.5" r="3.8" />
	</symbol>
	<symbol id="leftArrow" viewBox="0 0 320 512">
		<path d="M34.52 239.03L228.87 44.69c9.37-9.37 24.57-9.37 33.94 0l22.67 22.67c9.36 9.36 9.37 24.52.04 33.9L131.49 256l154.02 154.75c9.34 9.38 9.32 24.54-.04 33.9l-22.67 22.67c-9.37 9.37-24.57 9.37-33.94 0L34.52 272.97c-9.37-9.37-9.37-24.57 0-33.94z">
		</path>
	</symbol>
	<symbol id="check" viewBox="0 0 300.6 300">
		<path class="cls-1" d="M271,60.82c-40.41,27.1-100,91.47-123.52,142-19.3-27.37-37.16-51.62-65.24-74.54C68.72,117.25,52,137.7,65.56,148.75c30.35,24.78,52.79,48.8,71.93,78.6a13.68,13.68,0,0,0,24.11-2.07C181.8,177.48,233,110.1,270.72,78.45h0C295.29,119.8,299,173.52,271,221c-54.62,92.87-188,92.27-241.88-1S42.63,10,150.4,10a138,138,0,0,1,92,34.3,5,5,0,0,0,6.89-.34l.07-.07a5,5,0,0,0-.34-7.1C222.81,13.78,188.1-.49,148.37,0,33.27,1.47-37.06,125.31,20.5,225c57.73,100,202.07,100,259.8,0C311.45,171.05,305.5,107.67,271,60.82Z" />
	</symbol>
	<!-- Header -->
	<symbol id="account" viewBox="0 0 451.16 463.8">
		<path style="stroke-linecap:round;fill:none;stroke-miterlimit:10;stroke-width:20px;" d="M441.16,453.75c0-95.69-96.52-173.26-215.58-173.26S10,358.06,10,453.75" />
		<circle style="fill:none;stroke-miterlimit:10;stroke-width:20px;" cx="225.58" cy="133.98" r="123.98" />
	</symbol>
	<symbol id="cart" viewBox="0 0 456.01 430.04">
		<path d="M150.11,321.42a54.31,54.31,0,1,0,54.31,54.31,54.3,54.3,0,0,0-54.31-54.31Zm0,88.65a34.34,34.34,0,1,1,34.34-34.34,34.34,34.34,0,0,1-34.34,34.34Z" />
		<path d="M359.76,321.42a54.31,54.31,0,1,0,54.31,54.31,54.31,54.31,0,0,0-54.31-54.31Zm0,88.65a34.34,34.34,0,1,1,34.34-34.34,34.35,34.35,0,0,1-34.34,34.34Z" />
		<path d="M446.12,93.5H93.6L86.41,53.27A60,60,0,0,0,37.8,4.74L11.74.16a10,10,0,1,0-3.5,19.66L34.4,24.41A40,40,0,0,1,66.75,56.76l35.34,199.37a49.81,49.81,0,0,0,49.12,41.23H360.86a49.78,49.78,0,0,0,47.82-35.44L455.6,106.38a10.48,10.48,0,0,0-1.49-8.89,10.14,10.14,0,0,0-8-4ZM389.61,256A29.74,29.74,0,0,1,361,277.29H151.31a29.8,29.8,0,0,1-29.45-24.76L97.2,113.37H432.74Z" />
	</symbol>
	<symbol id="search" viewBox="0 0 386.84 413.65">
		<line style="fill:none;stroke-width:20px;" x1="281.26" y1="305.8" x2="376.84" y2="403.65" />
		<circle style="fill:none;stroke-width:20px;stroke-miterlimit:10;" cx="175.4" cy="175.4" r="165.4" />
		<path style="fill:none;stroke-width:16px;" d="M137.44,63a131.16,131.16,0,0,0-75.19,81" />
	</symbol>
	<symbol id="emptyCart" viewBox="0 0 277 137">
		<line x1="1.77443" y1="-1.77443" x2="20.849" y2="-1.77443" transform="matrix(-1 8.74228e-08 8.74228e-08 1 53.5936 83.3718)" stroke="#aaa" stroke-width="3.54887" stroke-linecap="round" stroke-linejoin="round" />
		<line x1="1.77443" y1="-1.77443" x2="10.2443" y2="-1.77443" transform="matrix(-1 8.74228e-08 8.74228e-08 1 26.0212 83.3718)" stroke="#aaa" stroke-width="3.54887" stroke-linecap="round" stroke-linejoin="round" />
		<line x1="1.77443" y1="-1.77443" x2="36.4026" y2="-1.77443" transform="matrix(-1 8.74228e-08 8.74228e-08 1 67.0262 92.5626)" stroke="#aaa" stroke-width="3.54887" stroke-linecap="round" stroke-linejoin="round" />
		<line x1="1.77443" y1="-1.77443" x2="18.7281" y2="-1.77443" transform="matrix(-1 8.74228e-08 8.74228e-08 1 21.0724 92.5626)" stroke="#aaa" stroke-width="3.54887" stroke-linecap="round" stroke-linejoin="round" />
		<line x1="1.77443" y1="-1.77443" x2="32.1607" y2="-1.77443" transform="matrix(-1 8.74228e-08 8.74228e-08 1 277 101.046)" stroke="#aaa" stroke-width="3.54887" stroke-linecap="round" stroke-linejoin="round" />
		<line x1="1.77443" y1="-1.77443" x2="10.2443" y2="-1.77443" transform="matrix(-1 8.74228e-08 8.74228e-08 1 238.116 101.046)" stroke="#aaa" stroke-width="3.54887" stroke-linecap="round" stroke-linejoin="round" />
		<line x1="1.77443" y1="-1.77443" x2="36.4026" y2="-1.77443" transform="matrix(-1 8.74228e-08 8.74228e-08 1 257.204 110.237)" stroke="#aaa" stroke-width="3.54887" stroke-linecap="round" stroke-linejoin="round" />
		<line x1="60.1139" y1="49.0797" x2="50.4085" y2="58.7851" stroke="#E3F3FB" stroke-width="3.54887" />
		<line x1="59.222" y1="58.785" x2="49.5166" y2="49.0796" stroke="#E3F3FB" stroke-width="3.54887" />
		<line x1="232.109" y1="69.0729" x2="222.403" y2="78.7783" stroke="#E3F3FB" stroke-width="3.54887" />
		<line x1="230.821" y1="78.7783" x2="221.115" y2="69.0729" stroke="#E3F3FB" stroke-width="3.54887" />
		<g opacity="0.8">
			<path d="M186.069 42.5324L90.0713 36.0532L103.2 86.9616H182.367L186.069 42.5324Z" fill="white" />
			<path d="M72.6821 19.0062C71.7021 19.0062 70.9076 19.8006 70.9076 20.7806C70.9076 21.7606 71.7021 22.5551 72.6821 22.5551V19.0062ZM86.1034 20.7806L87.8208 20.3344C87.6176 19.5523 86.9115 19.0062 86.1034 19.0062V20.7806ZM186.069 42.5324L187.837 42.6798C187.877 42.206 187.724 41.7361 187.415 41.3756C187.105 41.0151 186.663 40.794 186.188 40.762L186.069 42.5324ZM182.367 86.9616V88.736C183.289 88.736 184.058 88.0286 184.135 87.1089L182.367 86.9616ZM103.2 86.9616L101.482 87.4047L101.485 87.4156L103.2 86.9616ZM107.855 104.548L106.14 105.002C106.346 105.78 107.05 106.323 107.855 106.323V104.548ZM185.936 107.523L187.072 106.16L185.936 107.523ZM186.784 110.539C187.537 111.167 188.656 111.065 189.283 110.312C189.911 109.559 189.809 108.44 189.056 107.813L186.784 110.539ZM72.6821 22.5551H86.1034V19.0062H72.6821V22.5551ZM84.386 21.2268L88.3539 36.4994L91.7887 35.607L87.8208 20.3344L84.386 21.2268ZM89.9518 37.8236L185.95 44.3028L186.188 40.762L90.1908 34.2828L89.9518 37.8236ZM184.301 42.3851L180.598 86.8142L184.135 87.1089L187.837 42.6798L184.301 42.3851ZM88.3531 36.4963L101.482 87.4047L104.919 86.5185L91.7895 35.61L88.3531 36.4963ZM182.367 85.1871H103.2V88.736H182.367V85.1871ZM101.485 87.4156L106.14 105.002L109.571 104.094L104.916 86.5076L101.485 87.4156ZM107.855 106.323H177.72V102.774H107.855V106.323ZM184.8 108.886L186.784 110.539L189.056 107.813L187.072 106.16L184.8 108.886ZM177.72 106.323C180.307 106.323 182.813 107.23 184.8 108.886L187.072 106.16C184.447 103.972 181.137 102.774 177.72 102.774V106.323Z" fill="#888" />
		</g>
		<circle cx="174.499" cy="124.911" r="10.2585" fill="white" stroke="#3aafa9" stroke-width="3.54887" />
		<circle cx="118.037" cy="124.911" r="10.2585" fill="white" stroke="#3aafa9" stroke-width="3.54887" />
		<line x1="124.06" y1="74.5275" x2="158.099" y2="74.5275" stroke="#DADADA" stroke-width="3.54887" stroke-linecap="round" stroke-linejoin="round" />
		<line x1="119.43" y1="64.2763" x2="162.011" y2="64.2763" stroke="#DADADA" stroke-width="3.54887" stroke-linecap="round" stroke-linejoin="round" />
		<line x1="115.461" y1="54.0251" x2="166.586" y2="54.0251" stroke="#DADADA" stroke-width="3.54887" stroke-linecap="round" stroke-linejoin="round" />
		<path d="M139.318 3.48279L139.318 20.4504" stroke="#3aafa9" stroke-width="5.3233" stroke-linecap="round" />
		<path d="M165.339 7.72461L159.113 23.5087" stroke="#3aafa9" stroke-width="5.3233" stroke-linecap="round" />
		<path d="M113.687 7.72461L119.913 23.5087" stroke="#3aafa9" stroke-width="5.3233" stroke-linecap="round" />
	</symbol>
	<symbol id="delete" viewBox="0 0 408 408">
		<path d="M87.748,388.784c0.461,11.01,9.521,19.699,20.539,19.699h191.911c11.018,0,20.078-8.689,20.539-19.699l13.705-289.316
			H74.043L87.748,388.784z M247.655,171.329c0-4.61,3.738-8.349,8.35-8.349h13.355c4.609,0,8.35,3.738,8.35,8.349v165.293
			c0,4.611-3.738,8.349-8.35,8.349h-13.355c-4.61,0-8.35-3.736-8.35-8.349V171.329z M189.216,171.329
			c0-4.61,3.738-8.349,8.349-8.349h13.355c4.609,0,8.349,3.738,8.349,8.349v165.293c0,4.611-3.737,8.349-8.349,8.349h-13.355
			c-4.61,0-8.349-3.736-8.349-8.349V171.329L189.216,171.329z M130.775,171.329c0-4.61,3.738-8.349,8.349-8.349h13.356
			c4.61,0,8.349,3.738,8.349,8.349v165.293c0,4.611-3.738,8.349-8.349,8.349h-13.356c-4.61,0-8.349-3.736-8.349-8.349V171.329z" />
		<path d="M343.567,21.043h-88.535V4.305c0-2.377-1.927-4.305-4.305-4.305h-92.971c-2.377,0-4.304,1.928-4.304,4.305v16.737H64.916
			c-7.125,0-12.9,5.776-12.9,12.901V74.47h304.451V33.944C356.467,26.819,350.692,21.043,343.567,21.043z" />
	</symbol>
	<symbol id="logout" viewBox="0 0 325.214 325.214">
		<path d="M288.777,93.565c-15.313-23.641-36.837-42.476-62.243-54.472c-1.616-0.763-3.109-1.134-4.564-1.134
		c-1.969,0-8.392,0.833-8.392,11.541v17.75c0,8.998,5.479,13.113,7.159,14.16c32.613,20.33,52.083,55.317,52.083,93.59
		c0,60.772-49.442,110.214-110.214,110.214S52.393,235.772,52.393,175c0-38.872,19.942-74.144,53.346-94.353
		c4.475-2.707,6.839-7.426,6.839-13.647V49c0-7.959-5.077-10.783-9.424-10.783c-1.714,0-3.542,0.422-5.144,1.188
		C72.781,51.471,51.42,70.305,36.237,93.872C20.638,118.084,12.393,146.137,12.393,175c0,82.828,67.386,150.214,150.214,150.214
		S312.821,257.828,312.821,175C312.821,146.008,304.507,117.848,288.777,93.565z" />
		<path d="M152.579,117h21c5.514,0,10-4.486,10-10V10c0-5.514-4.486-10-10-10h-21c-5.514,0-10,4.486-10,10v97
		C142.579,112.514,147.064,117,152.579,117z" />
	</symbol>
	<symbol id="user" viewBox="0 0 1000 1000">
		<path d="M500,10C228.8,10,10,228.8,10,500c0,271.3,218.8,490,490,490c271.3,0,490-218.8,490-490C990,228.8,771.3,10,500,10z M804.5,822C794,657.5,619,613.8,619,613.8s106.8-71.8,68.3-217c-19.3-75.3-91-131.3-189-131.3c-98,0-169.7,56-189,131.3c-38.5,145.2,68.2,217,68.2,217S202.5,652.3,192,822C109.7,739.7,57.3,626,57.3,500C57.3,255,255,57.3,500,57.3C745,57.3,942.8,255,942.8,500C942.8,626,890.2,739.7,804.5,822z" />
	</symbol>
	<symbol id="library" viewBox="0 0 385 350.74">
		<rect x="0.5" y="0.76" width="88.08" height="349.22" rx="17.88" />
		<rect x="103.8" y="0.76" width="88.08" height="349.22" rx="17.88" />
		<rect x="248.31" y="0.76" width="88.08" height="349.22" rx="17.88" transform="translate(-40.39 101.15) rotate(-18.38)" />
	</symbol>
	<!-- Footer -->
	<symbol id="share" viewBox="0 0 512 512">
		<path d="M406,332c-29.636,0-55.969,14.402-72.378,36.571l-141.27-72.195C194.722,288.324,196,279.809,196,271
			c0-11.931-2.339-23.324-6.574-33.753l148.06-88.958C354.006,167.679,378.59,180,406,180c49.626,0,90-40.374,90-90
			c0-49.626-40.374-90-90-90c-49.626,0-90,40.374-90,90c0,11.47,2.161,22.443,6.09,32.54l-148.43,89.18
			C157.152,192.902,132.941,181,106,181c-49.626,0-90,40.374-90,90c0,49.626,40.374,90,90,90c30.122,0,56.832-14.876,73.177-37.666
			l140.86,71.985C317.414,403.753,316,412.714,316,422c0,49.626,40.374,90,90,90c49.626,0,90-40.374,90-90
			C496,372.374,455.626,332,406,332z M406,30c33.084,0,60,26.916,60,60s-26.916,60-60,60s-60-26.916-60-60S372.916,30,406,30z
			 M106,331c-33.084,0-60-26.916-60-60s26.916-60,60-60s60,26.916,60,60S139.084,331,106,331z M406,482c-33.084,0-60-26.916-60-60
			s26.916-60,60-60s60,26.916,60,60S439.084,482,406,482z" />
	</symbol>
	<symbol id="information" viewBox="0 0 512 512">
		<path d="M256,0C114.497,0,0,114.507,0,256c0,141.503,114.507,256,256,256c141.503,0,256-114.507,256-256
			C512,114.497,397.492,0,256,0z M256,472c-119.393,0-216-96.615-216-216c0-119.393,96.615-216,216-216
			c119.393,0,216,96.615,216,216C472,375.393,375.384,472,256,472z" />
		<path d="M256,214.33c-11.046,0-20,8.954-20,20v128.793c0,11.046,8.954,20,20,20s20-8.955,20-20.001V234.33
			C276,223.284,267.046,214.33,256,214.33z" />
		<circle cx="256" cy="162.84" r="27" />
	</symbol>
	<symbol id="facebook" viewBox="0 0 97.75 97.75">
		<path d="M48.875,0C21.882,0,0,21.882,0,48.875S21.882,97.75,48.875,97.75S97.75,75.868,97.75,48.875S75.868,0,48.875,0z
		 M67.521,24.89l-6.76,0.003c-5.301,0-6.326,2.519-6.326,6.215v8.15h12.641L67.07,52.023H54.436v32.758H41.251V52.023H30.229V39.258
		h11.022v-9.414c0-10.925,6.675-16.875,16.42-16.875l9.851,0.015V24.89L67.521,24.89z" />
	</symbol>
	<symbol id="twitter" viewBox="0 0 512 512">
		<path d="m256 0c-141.363281 0-256 114.636719-256 256s114.636719 256 256 256 256-114.636719 256-256-114.636719-256-256-256zm116.886719 199.601562c.113281 2.519532.167969 5.050782.167969 7.59375 0 77.644532-59.101563 167.179688-167.183594 167.183594h.003906-.003906c-33.183594 0-64.0625-9.726562-90.066406-26.394531 4.597656.542969 9.277343.8125 14.015624.8125 27.53125 0 52.867188-9.390625 72.980469-25.152344-25.722656-.476562-47.410156-17.464843-54.894531-40.8125 3.582031.6875 7.265625 1.0625 11.042969 1.0625 5.363281 0 10.558593-.722656 15.496093-2.070312-26.886718-5.382813-47.140624-29.144531-47.140624-57.597657 0-.265624 0-.503906.007812-.75 7.917969 4.402344 16.972656 7.050782 26.613281 7.347657-15.777343-10.527344-26.148437-28.523438-26.148437-48.910157 0-10.765624 2.910156-20.851562 7.957031-29.535156 28.976563 35.554688 72.28125 58.9375 121.117187 61.394532-1.007812-4.304688-1.527343-8.789063-1.527343-13.398438 0-32.4375 26.316406-58.753906 58.765625-58.753906 16.902344 0 32.167968 7.144531 42.890625 18.566406 13.386719-2.640625 25.957031-7.53125 37.3125-14.261719-4.394531 13.714844-13.707031 25.222657-25.839844 32.5 11.886719-1.421875 23.214844-4.574219 33.742187-9.253906-7.863281 11.785156-17.835937 22.136719-29.308593 30.429687zm0 0" />
	</symbol>
	<symbol id="whatsapp" viewBox="0 0 512 512">
		<path d="m256 0c-141.363281 0-256 114.636719-256 256s114.636719 256 256 256 256-114.636719 256-256-114.636719-256-256-256zm5.425781 405.050781c-.003906 0 .003907 0 0 0h-.0625c-25.644531-.011719-50.84375-6.441406-73.222656-18.644531l-81.222656 21.300781 21.738281-79.375c-13.410156-23.226562-20.464844-49.578125-20.453125-76.574219.035156-84.453124 68.769531-153.160156 153.222656-153.160156 40.984375.015625 79.457031 15.96875 108.382813 44.917969 28.929687 28.953125 44.851562 67.4375 44.835937 108.363281-.035156 84.457032-68.777343 153.171875-153.21875 153.171875zm0 0" />
		<path d="m261.476562 124.46875c-70.246093 0-127.375 57.105469-127.40625 127.300781-.007812 24.054688 6.726563 47.480469 19.472657 67.75l3.027343 4.816407-12.867187 46.980468 48.199219-12.640625 4.652344 2.757813c19.550781 11.601562 41.964843 17.738281 64.816406 17.746094h.050781c70.191406 0 127.320313-57.109376 127.351563-127.308594.011718-34.019532-13.222657-66.003906-37.265626-90.066406-24.042968-24.0625-56.019531-37.324219-90.03125-37.335938zm74.90625 182.035156c-3.191406 8.9375-18.484374 17.097656-25.839843 18.199219-6.597657.984375-14.941407 1.394531-24.113281-1.515625-5.5625-1.765625-12.691407-4.121094-21.828126-8.0625-38.402343-16.578125-63.484374-55.234375-65.398437-57.789062-1.914063-2.554688-15.632813-20.753907-15.632813-39.59375 0-18.835938 9.890626-28.097657 13.398438-31.925782 3.511719-3.832031 7.660156-4.789062 10.210938-4.789062 2.550781 0 5.105468.023437 7.335937.132812 2.351563.117188 5.507813-.894531 8.613281 6.570313 3.191406 7.664062 10.847656 26.5 11.804688 28.414062.957031 1.917969 1.59375 4.152344.320312 6.707031-1.277344 2.554688-5.519531 8.066407-9.570312 13.089844-1.699219 2.105469-3.914063 3.980469-1.679688 7.8125 2.230469 3.828125 9.917969 16.363282 21.296875 26.511719 14.625 13.039063 26.960938 17.078125 30.789063 18.996094 3.824218 1.914062 6.058594 1.59375 8.292968-.957031 2.230469-2.554688 9.570313-11.175782 12.121094-15.007813 2.550782-3.832031 5.105469-3.191406 8.613282-1.914063 3.511718 1.273438 22.332031 10.535157 26.160156 12.449219 3.828125 1.917969 6.378906 2.875 7.335937 4.472657.960938 1.597656.960938 9.257812-2.230469 18.199218zm0 0" />
	</symbol>
	<symbol id="youtube" viewBox="0 0 512 512">
		<path d="m224.113281 303.960938 83.273438-47.960938-83.273438-47.960938zm0 0" />
		<path d="m256 0c-141.363281 0-256 114.636719-256 256s114.636719 256 256 256 256-114.636719 256-256-114.636719-256-256-256zm159.960938 256.261719s0 51.917969-6.585938 76.953125c-3.691406 13.703125-14.496094 24.507812-28.199219 28.195312-25.035156 6.589844-125.175781 6.589844-125.175781 6.589844s-99.878906 0-125.175781-6.851562c-13.703125-3.6875-24.507813-14.496094-28.199219-28.199219-6.589844-24.769531-6.589844-76.949219-6.589844-76.949219s0-51.914062 6.589844-76.949219c3.6875-13.703125 14.757812-24.773437 28.199219-28.460937 25.035156-6.589844 125.175781-6.589844 125.175781-6.589844s100.140625 0 125.175781 6.851562c13.703125 3.6875 24.507813 14.496094 28.199219 28.199219 6.851562 25.035157 6.585938 77.210938 6.585938 77.210938zm0 0" />
	</symbol>
	<symbol id="linkedin" viewBox="0 0 512 512">
		<path d="m256 0c-141.363281 0-256 114.636719-256 256s114.636719 256 256 256 256-114.636719 256-256-114.636719-256-256-256zm-74.390625 387h-62.347656v-187.574219h62.347656zm-31.171875-213.1875h-.40625c-20.921875 0-34.453125-14.402344-34.453125-32.402344 0-18.40625 13.945313-32.410156 35.273437-32.410156 21.328126 0 34.453126 14.003906 34.859376 32.410156 0 18-13.53125 32.402344-35.273438 32.402344zm255.984375 213.1875h-62.339844v-100.347656c0-25.21875-9.027343-42.417969-31.585937-42.417969-17.222656 0-27.480469 11.601563-31.988282 22.800781-1.648437 4.007813-2.050781 9.609375-2.050781 15.214844v104.75h-62.34375s.816407-169.976562 0-187.574219h62.34375v26.558594c8.285157-12.78125 23.109375-30.960937 56.1875-30.960937 41.019531 0 71.777344 26.808593 71.777344 84.421874zm0 0" />
	</symbol>
	<symbol id="instagram" viewBox="0 0 512 512">
		<path d="m305 256c0 27.0625-21.9375 49-49 49s-49-21.9375-49-49 21.9375-49 49-49 49 21.9375 49 49zm0 0" />
		<path d="m370.59375 169.304688c-2.355469-6.382813-6.113281-12.160157-10.996094-16.902344-4.742187-4.882813-10.515625-8.640625-16.902344-10.996094-5.179687-2.011719-12.960937-4.40625-27.292968-5.058594-15.503906-.707031-20.152344-.859375-59.402344-.859375-39.253906 0-43.902344.148438-59.402344.855469-14.332031.65625-22.117187 3.050781-27.292968 5.0625-6.386719 2.355469-12.164063 6.113281-16.902344 10.996094-4.882813 4.742187-8.640625 10.515625-11 16.902344-2.011719 5.179687-4.40625 12.964843-5.058594 27.296874-.707031 15.5-.859375 20.148438-.859375 59.402344 0 39.25.152344 43.898438.859375 59.402344.652344 14.332031 3.046875 22.113281 5.058594 27.292969 2.359375 6.386719 6.113281 12.160156 10.996094 16.902343 4.742187 4.882813 10.515624 8.640626 16.902343 10.996094 5.179688 2.015625 12.964844 4.410156 27.296875 5.0625 15.5.707032 20.144532.855469 59.398438.855469 39.257812 0 43.90625-.148437 59.402344-.855469 14.332031-.652344 22.117187-3.046875 27.296874-5.0625 12.820313-4.945312 22.953126-15.078125 27.898438-27.898437 2.011719-5.179688 4.40625-12.960938 5.0625-27.292969.707031-15.503906.855469-20.152344.855469-59.402344 0-39.253906-.148438-43.902344-.855469-59.402344-.652344-14.332031-3.046875-22.117187-5.0625-27.296874zm-114.59375 162.179687c-41.691406 0-75.488281-33.792969-75.488281-75.484375s33.796875-75.484375 75.488281-75.484375c41.6875 0 75.484375 33.792969 75.484375 75.484375s-33.796875 75.484375-75.484375 75.484375zm78.46875-136.3125c-9.742188 0-17.640625-7.898437-17.640625-17.640625s7.898437-17.640625 17.640625-17.640625 17.640625 7.898437 17.640625 17.640625c-.003906 9.742188-7.898437 17.640625-17.640625 17.640625zm0 0" />
		<path d="m256 0c-141.363281 0-256 114.636719-256 256s114.636719 256 256 256 256-114.636719 256-256-114.636719-256-256-256zm146.113281 316.605469c-.710937 15.648437-3.199219 26.332031-6.832031 35.683593-7.636719 19.746094-23.246094 35.355469-42.992188 42.992188-9.347656 3.632812-20.035156 6.117188-35.679687 6.832031-15.675781.714844-20.683594.886719-60.605469.886719-39.925781 0-44.929687-.171875-60.609375-.886719-15.644531-.714843-26.332031-3.199219-35.679687-6.832031-9.8125-3.691406-18.695313-9.476562-26.039063-16.957031-7.476562-7.339844-13.261719-16.226563-16.953125-26.035157-3.632812-9.347656-6.121094-20.035156-6.832031-35.679687-.722656-15.679687-.890625-20.6875-.890625-60.609375s.167969-44.929688.886719-60.605469c.710937-15.648437 3.195312-26.332031 6.828125-35.683593 3.691406-9.808594 9.480468-18.695313 16.960937-26.035157 7.339844-7.480469 16.226563-13.265625 26.035157-16.957031 9.351562-3.632812 20.035156-6.117188 35.683593-6.832031 15.675781-.714844 20.683594-.886719 60.605469-.886719s44.929688.171875 60.605469.890625c15.648437.710937 26.332031 3.195313 35.683593 6.824219 9.808594 3.691406 18.695313 9.480468 26.039063 16.960937 7.476563 7.34375 13.265625 16.226563 16.953125 26.035157 3.636719 9.351562 6.121094 20.035156 6.835938 35.683593.714843 15.675781.882812 20.683594.882812 60.605469s-.167969 44.929688-.886719 60.605469zm0 0" />
	</symbol>
	<!-- Land -->
	<symbol id="star" viewBox="0 0 512 512">
		<path d="m10.201,.758l2.478,5.865 6.344,.545c0.44,0.038 0.619,0.587 0.285,0.876l-4.812,4.169 1.442,6.202c0.1,0.431-0.367,0.77-0.745,0.541l-5.452-3.288-5.452,3.288c-0.379,0.228-0.845-0.111-0.745-0.541l1.442-6.202-4.813-4.17c-0.334-0.289-0.156-0.838 0.285-0.876l6.344-.545 2.478-5.864c0.172-0.408 0.749-0.408 0.921,0z" />
	</symbol>
	<symbol id="secure" viewBox="0 0 512 512">
		<path d="M466.4,88.4C396,69.1,325.1,39.1,261.5,1.5c-3.4-2-7.6-2-10.9,0C185.1,40.1,118.1,68.6,45.6,88.4
				c-4.7,1.3-7.9,5.5-7.9,10.4v110c0,113.3,52.3,188.3,96.1,231.3C181,486.4,236,512,256,512c20,0,75-25.6,122.2-71.9
				c43.9-43,96.1-118,96.1-231.3v-110C474.3,93.9,471.1,89.7,466.4,88.4z M452.8,208.8c0,105.8-48.8,175.8-89.7,215.9
				c-46.4,45.5-96.1,65.7-107.1,65.7c-11,0-60.7-20.2-107.1-65.7C108,384.7,59.2,314.7,59.2,208.8V107C128.5,87.3,193,59.9,256,23.3
				c61.4,35.6,129.2,64.4,196.8,83.7V208.8z" />
		<path d="M182.6,234c-6.6-6.6-15.4-10.3-24.8-10.3s-18.1,3.6-24.8,10.3c-13.7,13.7-13.7,35.9,0,49.5l63.6,63.6
				c6.6,6.6,15.4,10.3,24.8,10.3s18.1-3.6,24.8-10.3l132.8-132.8c13.7-13.7,13.7-35.9,0-49.5c-6.6-6.6-15.4-10.3-24.8-10.3
				c-9.4,0-18.1,3.6-24.8,10.3l-108,108L182.6,234z M344.6,180.1c2.5-2.5,5.9-3.9,9.5-3.9c3.6,0,7,1.4,9.5,3.9
				c5.3,5.3,5.3,13.8,0,19.1L231,331.9c-2.5,2.5-5.9,3.9-9.5,3.9s-7-1.4-9.5-3.9l-63.6-63.6c-5.3-5.3-5.3-13.8,0-19.1
				c2.5-2.5,5.9-3.9,9.5-3.9s7,1.4,9.5,3.9l46.4,46.4c2,2,4.8,3.2,7.6,3.2s5.6-1.1,7.6-3.2L344.6,180.1z" />
	</symbol>
	<symbol id="offer" viewBox="0 0 512 512">
		<path d="M57.6,502c-5.1,0-9.2-4.1-9.2-9.2V19.2c0-3.2,1.5-6,4.3-7.8c1.5-0.9,3.2-1.4,4.9-1.4c1.4,0,2.8,0.3,3.9,0.9l62,29.6l62-29.5
	c1.4-0.6,2.7-0.9,4-0.9c1.4,0,2.7,0.3,3.7,0.8l0.2,0.1L256,40.4l62-29.5c1.2-0.6,2.6-0.9,3.9-0.9c1.4,0,2.6,0.3,3.8,0.9l62.8,29.5
	l62-29.5c1.3-0.6,2.5-0.9,4-0.9c1.7,0,3.4,0.5,5,1.4c2.6,1.7,4.2,4.6,4.2,7.8v473.6c0,5.1-4.1,9.2-9.2,9.2H57.6z M66.8,483.6h378.4
	V33.8l-52.7,25.1c-1.4,0.6-2.7,0.9-4,0.9c-1.4,0-2.7-0.3-3.7-0.8l-0.2-0.1L322,29.4l-62,29.5c-1.3,0.6-2.5,0.9-4,0.9
	c-1.4,0-2.6-0.3-3.8-0.9l-62.7-29.5l-62,29.5c-1.4,0.6-2.7,0.9-4,0.9c-1.4,0-2.8-0.3-3.9-0.9L66.8,33.8V483.6z" />
		<path d="M190.1,246c-27.7,0-50.2-22.5-50.2-50.2c0-27.7,22.5-50.2,50.2-50.2c27.7,0,50.2,22.5,50.2,50.2
		C240.3,223.5,217.8,246,190.1,246z M190.1,164.1c-17.5,0-31.8,14.3-31.8,31.8s14.3,31.8,31.8,31.8s31.8-14.3,31.8-31.8
		S207.6,164.1,190.1,164.1z" />
		<path d="M321.9,377.9c-27.7,0-50.2-22.5-50.2-50.2s22.5-50.2,50.2-50.2c27.7,0,50.2,22.5,50.2,50.2c0,13.4-5.2,26-14.7,35.5
		C347.9,372.7,335.3,377.9,321.9,377.9z M321.9,295.9c-17.5,0-31.8,14.3-31.8,31.8s14.3,31.8,31.8,31.8c17.5,0,31.8-14.3,31.8-31.8
		c0-8.5-3.3-16.5-9.3-22.4C338.4,299.2,330.4,295.9,321.9,295.9z" />
		<path d="M165.1,362.5c-2.4,0-4.7-1-6.5-2.7s-2.7-4.1-2.7-6.5s1-4.7,2.7-6.5l187.5-188.2c1.8-1.8,4.1-2.7,6.5-2.7s4.7,1,6.5,2.7
		c1.8,1.7,2.7,4,2.7,6.4c0,2.5-1,4.8-2.7,6.6L171.7,359.8C169.9,361.6,167.6,362.5,165.1,362.5z" />
	</symbol>
	<symbol id="reading" viewBox="0 0 512 512">
		<path d="m130.004 291.999h85.995c5.523 0 10-4.477 10-10s-4.477-10-10-10h-85.995c-5.523 0-10 4.477-10 10s4.477 10 10 10z" />
		<path d="m130.004 331.999h85.995c5.523 0 10-4.477 10-10s-4.477-10-10-10h-85.995c-5.523 0-10 4.477-10 10s4.477 10 10 10z" />
		<path d="m130.004 371.999h85.995c5.523 0 10-4.477 10-10s-4.477-10-10-10h-85.995c-5.523 0-10 4.477-10 10s4.477 10 10 10z" />
		<path d="m130.004 411.999h85.995c5.523 0 10-4.477 10-10s-4.477-10-10-10h-85.995c-5.523 0-10 4.477-10 10s4.477 10 10 10z" />
		<path d="m296.002 291.999h85.995c5.522 0 10-4.477 10-10s-4.478-10-10-10h-85.995c-5.522 0-10 4.477-10 10s4.478 10 10 10z" />
		<path d="m296.002 331.999h85.995c5.522 0 10-4.477 10-10s-4.478-10-10-10h-85.995c-5.522 0-10 4.477-10 10s4.478 10 10 10z" />
		<path d="m296.002 371.999h85.995c5.522 0 10-4.477 10-10s-4.478-10-10-10h-85.995c-5.522 0-10 4.477-10 10s4.478 10 10 10z" />
		<path d="m296.002 411.999h85.995c5.522 0 10-4.477 10-10s-4.478-10-10-10h-85.995c-5.522 0-10 4.477-10 10s4.478 10 10 10z" />
		<path d="m512.001 231.997c0-51.877-39.701-94.654-90.318-99.538-4.918-73.87-66.584-132.459-141.679-132.459-34.304 0-67.421 12.399-93.251 34.915-23.186 20.21-39.139 47.312-45.557 77.089-.397-.007-.795-.01-1.192-.01-35.393 0-64.735 26.403-69.365 60.546-39.719 4.65-70.639 38.51-70.639 79.457 0 28.455 15.512 54.956 40.001 69.207v170.799c0 11.027 8.972 19.998 20 19.998h391.999c11.028 0 20-8.971 20-19.998v-180.137c25.141-18.931 40.001-48.394 40.001-79.869zm-471.999 60v4.59c-12.487-11.258-20.002-27.455-20.002-44.59 0-33.085 26.917-60.001 60.002-60.001 5.523 0 10-4.477 10-10 0-27.571 22.431-50.002 50.001-50.002 2.625 0 5.268.207 7.853.614 2.641.418 5.335-.241 7.486-1.825s3.58-3.963 3.966-6.606c8.687-59.39 60.575-104.177 120.696-104.177 67.269 0 121.995 54.727 121.995 121.994 0 5.523 4.478 10 10 10 44.113 0 80.002 35.889 80.002 80.003 0 20.134-7.62 39.248-20.978 53.853-2.601-8.026-10.141-13.851-19.023-13.851h-20.001v-20.002c0-11.028-8.972-20-20-20h-129.933c-10.011 0-19.299 4.047-26.065 10.762-6.766-6.715-16.053-10.762-26.064-10.762h-29.933c-5.523 0-10 4.477-10 10s4.477 10 10 10h29.933c7.291 0 13.736 4.677 16.064 11.501v192.188c-4.899-2.37-10.364-3.686-16.064-3.686h-129.934v-200.002h10c5.523 0 10-4.477 10-10s-4.477-10-10-10h-10c-11.028 0-20 8.972-20 20v20.002h-20.002c-11.028-.001-19.999 8.97-19.999 19.997zm60.001 180.003h129.934c7.291 0 13.736 4.677 16.064 11.501v8.501l-145.998.001zm311.996-20h-129.933c-5.701 0-11.165 1.316-16.064 3.686v-192.188c2.328-6.823 8.773-11.5 16.064-11.5h129.934v200.002zm-145.998 31.501c2.328-6.823 8.773-11.5 16.064-11.5h129.934v20.001l-145.998.001zm-206-191.502h20.001v160.001 40.003h-20.001zm371.998 200.003v-40.002-160.002l20.001-.001v14.698.043 185.263z" />
		<path d="m216.002 147.746c2.559 0 5.119-.976 7.071-2.929l5.429-5.429v42.108c0 5.523 4.477 10 10 10s10-4.477 10-10v-42.108l5.428 5.428c3.906 3.906 10.236 3.906 14.143 0 3.905-3.905 3.905-10.237 0-14.142l-22.5-22.5c-1.875-1.875-4.419-2.929-7.071-2.929s-5.196 1.054-7.071 2.929l-22.5 22.5c-3.905 3.905-3.905 10.237 0 14.143 1.952 1.953 4.512 2.929 7.071 2.929z" />
		<path d="m316.432 188.567c1.953 1.953 4.512 2.929 7.071 2.929s5.118-.976 7.071-2.929l22.5-22.5c3.905-3.905 3.905-10.237 0-14.143-3.906-3.905-10.236-3.905-14.143 0l-5.429 5.429v-42.108c0-5.523-4.478-10-10-10s-10 4.477-10 10v42.108l-5.429-5.429c-3.906-3.905-10.236-3.905-14.143 0-3.905 3.905-3.905 10.237 0 14.143z" />
		<path d="m155.007 251.998c5.523 0 10-4.477 10-10s-4.477-10-10-10h-.008c-5.523 0-9.996 4.477-9.996 10s4.481 10 10.004 10z" />
	</symbol>
	<symbol id="creditCard" viewBox="0 0 512 512">
		<path d="M45,506c-21.5,0-39-17.5-39-39V250.4c0-21.5,17.5-39,39-39h47.3l194-194C293.6,10,303.4,6,313.8,6s20.2,4,27.6,11.4
		l153.2,153.2c15.2,15.2,15.2,39.9,0,55.2l-66,66V467c0,21.5-17.5,39-39,39H45z M45,229.4c-11.6,0-21,9.4-21,21V467
		c0,11.6,9.4,21,21,21h344.6c11.6,0,21-9.4,21-21V250.4c0-11.6-9.4-21-21-21H45z M415.1,220.4l3.7,4.2c6.3,7.1,9.8,16.3,9.8,25.8
		v15.9l53.2-53.2c8.2-8.2,8.2-21.5,0-29.7L467,168.5L415.1,220.4z M339.3,211.4h50.4c1.7,0,3.5,0.1,5.3,0.4l2.9,0.4l56.4-56.4
		L424.6,126L339.3,211.4z M313.8,24c-5.6,0-10.9,2.2-14.8,6.1L117.8,211.4h196l98.1-98.1l-83.2-83.2C324.7,26.2,319.5,24,313.8,24z" />
		<rect x="66" y="412.6" width="43.8" height="18" />
		<rect x="152.3" y="412.6" width="43.8" height="18" />
		<rect x="238.5" y="412.6" width="43.8" height="18" />
		<rect x="324.8" y="412.6" width="43.8" height="18" />
		<path d="M66,364.8v-78h89.3v78H66z M84,346.8h53.3v-42H84V346.8z" />
	</symbol>
	<!-- Search -->
	<symbol viewBox="0 0 238.21 150" id="list">
		<rect class="cls-1" width="44.15" height="42.86" rx="11.86" />
		<rect class="cls-1" y="53.57" width="44.15" height="42.86" rx="11.86" />
		<rect class="cls-1" y="107.14" width="44.15" height="42.86" rx="11.86" />
		<rect class="cls-1" x="50.17" width="188.04" height="42.86" rx="15.38" />
		<rect class="cls-1" x="50.17" y="53.57" width="188.04" height="42.86" rx="15.38" />
		<rect class="cls-1" x="50.17" y="107.14" width="188.04" height="42.86" rx="15.38" />
	</symbol>
	<symbol viewBox="0 0 420 420" id="grid">
		<rect class="cls-1" width="120" height="120" rx="36.05" />
		<rect class="cls-1" x="300" y="150" width="120" height="120" rx="36.05" />
		<rect class="cls-1" x="150" y="300" width="120" height="120" rx="36.05" />
		<rect class="cls-1" x="150" y="150" width="120" height="120" rx="36.05" />
		<rect class="cls-1" x="300" width="120" height="120" rx="36.05" />
		<rect class="cls-1" x="150" width="120" height="120" rx="36.05" />
		<rect class="cls-1" x="300" y="300" width="120" height="120" rx="36.05" />
		<rect class="cls-1" y="150" width="120" height="120" rx="36.05" />
		<rect class="cls-1" y="300" width="120" height="120" rx="36.05" />
	</symbol>
	<symbol viewBox="0 0 224.26 207.18" id="sort">
		<path class="cls-1" d="M67.82,207.18a14.68,14.68,0,0,1-10.44-4.33l-53.06-53a14.77,14.77,0,0,1,10.45-25.21h34.7V22.47a18.35,18.35,0,0,1,36.7,0V124.59h34.71a14.76,14.76,0,0,1,10.44,25.21l-53.06,53A14.66,14.66,0,0,1,67.82,207.18Zm-53-73.51a5.68,5.68,0,0,0-4,9.7l53.06,53.06a5.69,5.69,0,0,0,8,0l53.06-53.06a5.69,5.69,0,0,0-4-9.7H81.63a4.54,4.54,0,0,1-4.54-4.54V22.47a9.27,9.27,0,0,0-18.53,0V129.13A4.54,4.54,0,0,1,54,133.67Z" />
		<path class="cls-1" d="M101.74,158.34a4.55,4.55,0,0,1-3.21-7.76l.89-.89a4.54,4.54,0,0,1,6.43,6.42l-.9.9A4.56,4.56,0,0,1,101.74,158.34Z" />
		<path class="cls-1" d="M68.58,191.49a4.54,4.54,0,0,1-3.21-7.75L88.92,160.2a4.54,4.54,0,0,1,6.42,6.42L71.8,190.16A4.53,4.53,0,0,1,68.58,191.49Z" />
		<path class="cls-1" d="M156.43,0A14.55,14.55,0,0,0,146,4.41L92.93,58.55A15.15,15.15,0,0,0,88.61,69.2a14.93,14.93,0,0,0,14.77,15.06h34.7v104.2a18.35,18.35,0,1,0,36.7,0V84.26h34.71A14.93,14.93,0,0,0,224.26,69.2a15.11,15.11,0,0,0-4.33-10.65L166.87,4.41A14.53,14.53,0,0,0,156.43,0ZM103.38,75a5.75,5.75,0,0,1-5.69-5.8,5.85,5.85,0,0,1,1.67-4.1L152.41,11a5.6,5.6,0,0,1,8,0L213.51,65.1a5.82,5.82,0,0,1,1.66,4.1,5.75,5.75,0,0,1-5.68,5.8H170.24a4.58,4.58,0,0,0-4.54,4.63V188.46a9.27,9.27,0,1,1-18.53,0V79.63A4.58,4.58,0,0,0,142.63,75Z" />
	</symbol>
	<symbol viewBox="0 0 1000 1000" id="filter">
		<path d="M10,10l408.3,490v490l163.3-163.3V500L990,10H10z" />
	</symbol>
	<symbol viewBox="0 0 478.04 481.04" id="close">
		<rect class="cls-1" x="196.19" y="-65.33" width="91.67" height="620.71" rx="38.25" transform="translate(-102.37 242.9) rotate(-45)" />
		<rect class="cls-1" x="190.19" y="-74.33" width="91.67" height="620.71" rx="38.25" transform="translate(236.02 -97.76) rotate(45)" />
	</symbol>
</svg>
