<?xml version="1.0" encoding="utf-8"?>
<!-- Generator: Adobe Illustrator 23.0.2, SVG Export Plug-In . SVG Version: 6.00 Build 0)  -->
<svg version="1.1" id="Layer_1" xmlns="http://www.w3.org/2000/svg" xmlns:xlink="http://www.w3.org/1999/xlink" x="0px" y="0px"
	 viewBox="0 0 800 470" style="enable-background:new 0 0 800 470;" xml:space="preserve">
<style type="text/css">
	.st0{fill:#3AAFA9;}
</style>
<path class="st0" d="M133.8,149.1H17.6c-2.4,0-4.4,1.9-4.4,4.3c0,0,0,0,0,0v162.7c0,4.8,3.9,8.7,8.7,8.7c1.8,0,3.6-0.6,5.1-1.6
	l48.7-34.9l48.7,34.9c3.9,2.8,9.3,1.9,12.1-2c1.1-1.5,1.6-3.2,1.6-5.1V153.4C138.1,151,136.2,149.1,133.8,149.1
	C133.8,149.1,133.8,149.1,133.8,149.1z"/>
<path class="st0" d="M152.5,200.2v-6.5c1.3-0.2,3.1-0.5,5.2-0.8c2.1-0.3,4.3-0.6,6.5-0.8c2.2-0.3,4.2-0.5,5.9-0.7
	c1.7-0.1,2.7-0.3,3-0.3s0.9,0.4,1.8,1.2c0.9,0.8,1.7,1.7,2.4,2.6c0.7,1,1.1,1.6,1.1,1.9v85.8l31.5,3.5c1,0.1,1.9-0.3,2.5-1.1
	c0.8-0.8,1.5-2.2,2.1-4.1c0.7-2.4,1.2-4.9,1.5-7.4c0.4-3.7,0.6-7.3,0.6-11c0-4.7-0.8-8-2.5-10c-1.7-2-4.2-3.3-7.7-3.9l-14.6-2.3
	v-7.9h12.2c0.7,0,1.3-0.5,2-1.6c0.8-1.4,1.4-2.9,1.8-4.4c0.6-2.1,1.1-4.3,1.4-6.4c0.4-2.5,0.6-5.1,0.6-7.6c0.1-4.1-0.1-8.1-0.6-12.1
	c-0.4-2.7-1.1-4.5-2.2-5.4s-2.5-1.2-4.4-1l-10.4,0.8l1.3-9.4h6.9c5.6,0,10.3,0.8,14.1,2.4c3.8,1.6,6.9,4.6,8.7,8.4c2,4,3,9.6,3,16.8
	c0,1.1-0.6,2.8-1.8,5c-1.4,2.6-3,5-4.9,7.4c-2.2,2.8-4.6,5.5-7.1,8v1c6.4,1.1,11.4,3.9,15,8.2c3.6,4.4,5.4,9.7,5.4,16.1
	c0,2.7-0.2,5.5-0.5,8.2c-0.2,2.2-0.9,4.4-1.8,6.4c-0.8,1.3-1.7,2.4-2.8,3.3c-1.5,1.3-3.1,2.7-4.9,4.2c-1.9,1.5-3.8,2.8-5.8,4.1
	c-1.8,1.2-3.7,2.2-5.6,3.1c-1.3,0.6-2.8,1-4.3,1.1c-2.8,0-6-0.1-9.5-0.2c-3.6-0.1-7.2-0.3-10.9-0.5c-3.7-0.2-7.1-0.4-10.4-0.7
	c-3.2-0.2-5.9-0.5-7.9-0.8c-0.7-0.3-1.3-0.8-1.8-1.3c-0.9-0.7-1.8-1.6-2.6-2.4c-0.8-0.9-1.3-1.5-1.3-1.8v-84.6L152.5,200.2z
	 M192.2,191.2h4.2v85.6c-0.1,1-0.2,1.9-0.5,2.8c-0.6,1.8-1.4,3.6-2.3,5.2h-5.9v-79.2c0-1.2,0.5-3.2,1.4-5.9
	C190,197.1,191.1,194.2,192.2,191.2z"/>
<path class="st0" d="M281.3,295.2c-11.5,0-20.2-2.9-26-8.7c-5.9-5.8-8.8-15-8.8-27.5c0-4.9,0.4-9.7,1.2-14.5c0.8-4.6,1.7-8,2.8-10.1
	c0.9-1.3,2.5-3,4.8-4.9c2.4-2,4.9-3.9,7.5-5.7c2.7-1.8,5.3-3.4,7.6-4.7c2.3-1.3,4-1.9,5-1.9c11.3,0,19.8,3,25.5,9.1
	c5.8,6.1,8.6,14.8,8.6,26c0,5.1-0.4,10.2-1.2,15.2c-0.6,3.7-1.4,7.4-2.5,11.1c-1.4,1.6-3,3.1-4.7,4.4c-2.2,1.8-4.7,3.7-7.5,5.6
	c-2.4,1.7-4.9,3.3-7.5,4.7C284,294.6,282.3,295.2,281.3,295.2z M282.2,285.7c0.9-0.3,1.8-0.7,2.7-1.2c1.3-0.7,3.3-1.7,5.9-3
	c0.6-2.6,1.2-6,1.8-10.2c0.7-4.2,1-9.8,1-16.7c0-5.6-0.7-10.4-2.1-14.5c-1.4-4.1-3.5-7.3-6.3-9.5s-6.3-3.4-10.5-3.4
	c-1.1,0-2.2,0.1-3.3,0.3c-1.2,0.2-2.3,0.5-3.3,1.1c-1.5,0.8-2.7,3.6-3.8,8.5c-1.1,4.9-1.6,11.5-1.6,19.8c0,7.9,1,14,3,18.2
	c2,4.2,4.5,7,7.5,8.5C275.9,284.8,279,285.6,282.2,285.7z"/>
<path class="st0" d="M358.9,295.2c-11.5,0-20.2-2.9-26-8.7s-8.8-15-8.8-27.5c0-4.9,0.4-9.7,1.2-14.5c0.8-4.6,1.7-8,2.8-10.1
	c0.9-1.3,2.5-3,4.8-4.9c2.4-2,4.9-3.9,7.5-5.7c2.7-1.8,5.3-3.4,7.6-4.7c2.3-1.3,4-1.9,5-1.9c11.3,0,19.8,3,25.5,9.1
	c5.8,6.1,8.6,14.8,8.6,26c0,5.1-0.4,10.2-1.2,15.2c-0.6,3.7-1.4,7.4-2.5,11.1c-1.4,1.6-3,3.1-4.7,4.4c-2.2,1.8-4.7,3.7-7.5,5.6
	c-2.4,1.7-4.9,3.3-7.5,4.7C361.5,294.6,359.9,295.2,358.9,295.2z M359.7,285.7c0.9-0.3,1.8-0.7,2.7-1.2c1.3-0.7,3.3-1.7,5.9-3
	c0.6-2.6,1.2-6,1.8-10.2c0.7-4.2,1-9.8,1-16.7c0-5.6-0.7-10.4-2.1-14.5c-1.4-4.1-3.5-7.3-6.3-9.6c-2.8-2.3-6.3-3.4-10.5-3.4
	c-1.1,0-2.2,0.1-3.3,0.3c-1.2,0.2-2.3,0.6-3.3,1.1c-1.5,0.8-2.7,3.6-3.8,8.5c-1.1,4.9-1.6,11.5-1.6,19.8c0,7.9,1,14,3,18.2
	c2,4.2,4.5,7,7.5,8.5C353.5,284.8,356.6,285.6,359.7,285.7L359.7,285.7z"/>
<path class="st0" d="M422,231.6v52.3l5.7,2.5v6.2c-3.2,0.6-5.9,1.1-8,1.5s-3.7,0.8-4.8,0.9c-0.8,0.1-1.7,0.2-2.5,0.3
	c-0.3,0-1-0.4-1.8-1.2c-0.9-0.8-1.7-1.6-2.5-2.4c-0.8-0.8-1.2-1.4-1.2-1.8v-93.1l-6-2.3v-6.2c1.6-0.3,3.2-0.6,4.9-0.9
	c1.7-0.3,3.3-0.6,4.8-0.8c1.5-0.3,2.8-0.5,3.9-0.7c0.7-0.1,1.4-0.2,2.1-0.3c0.4,0,1.1,0.4,1.9,1.2c0.8,0.8,1.6,1.6,2.4,2.4
	s1.2,1.5,1.2,1.9l-0.8,40.5H422z M454.5,295.2c-0.2,0-0.8-0.4-1.8-1.1c-0.9-0.7-1.9-1.5-2.9-2.3c-0.7-0.6-1.3-1.2-1.9-1.9l-19.6-28
	v-5.5c2.9-1,5.8-2.1,8.8-3.3c2.8-1.1,5.3-2.8,7.5-4.9c2-2.1,3-4.9,3-8.5c0-2.8-0.5-4.9-1.6-6.3c-1-1.3-2.3-2.3-3.9-2.8
	c-1.4-0.5-2.8-0.7-4.3-0.8c-0.4,0-1.6,0.5-3.5,1.6c-1.9,1.1-4.2,2.5-6.8,4.2c-2.6,1.8-5.4,3.6-8.3,5.4v-9.4h2.7
	c1.6-1.4,3.3-3,5.2-4.6c1.9-1.6,3.7-3.2,5.4-4.7c1.7-1.5,3.1-2.7,4.3-3.7c1.2-0.9,1.9-1.4,2.1-1.4c8.3,0,14.3,1.8,18.2,5.4
	c3.9,3.6,5.8,8.4,5.8,14.6c0.1,3.8-1,7.5-2.9,10.7c-1.9,3.1-4.4,5.7-7.3,7.9c-2.7,2-5.5,3.7-8.5,5l17.4,22.9l6.7,2.7v6.2
	c-1.3,0.4-2.7,0.7-4.2,0.9c-1.5,0.3-2.8,0.6-4.2,0.8c-1.4,0.3-2.5,0.5-3.4,0.7C455.8,295.1,455.2,295.2,454.5,295.2z"/>
<path class="st0" d="M489.1,295.2c-0.3,0-1-0.4-1.8-1.2c-0.9-0.8-1.8-1.6-2.6-2.5c-0.8-0.9-1.3-1.5-1.3-1.8v-61.1l-5.9-2.5v-6.2
	c2.8-0.6,5.1-1,7-1.3c1.9-0.3,3.6-0.6,5.3-0.9c1-0.2,1.9-0.3,2.9-0.4c0.3,0,1,0.4,1.8,1.2c0.9,0.8,1.7,1.6,2.4,2.5
	c0.7,0.9,1.1,1.5,1.1,1.8v6.4c1.2-1.1,2.7-2.3,4.3-3.7c1.6-1.3,3.2-2.6,4.8-3.9c1.6-1.2,2.9-2.3,4-3.1c0.6-0.5,1.2-0.9,1.8-1.3
	c5.3,0,9.8,0.9,13.7,2.6c3.9,1.7,6.7,4.8,8.5,9.3c1.2-1.1,2.6-2.3,4.1-3.7s3-2.6,4.4-3.9c1.4-1.2,2.6-2.3,3.7-3.1
	c0.5-0.5,1.1-0.9,1.8-1.3c5.6,0,10.4,0.8,14.3,2.5c3.9,1.7,7,4.6,9.2,8.7c2.1,4.1,3.2,9.8,3.2,17.1v38.3l5.7,2.5v6.2
	c-2.8,0.6-5.1,1-7,1.3l-5.2,0.9c-0.9,0.2-1.9,0.3-2.8,0.4c-0.3,0-1-0.4-1.9-1.2c-0.9-0.8-1.8-1.6-2.7-2.5c-0.8-0.9-1.3-1.5-1.3-1.8
	v-44.2c0-4-0.4-7.1-1.3-9.3c-0.8-2.2-1.9-3.7-3.1-4.6c-1-0.8-2.2-1.3-3.5-1.6c-0.9-0.1-1.8-0.2-2.7-0.3c-0.3,0-1.2,0.3-2.5,0.9
	c-1.3,0.6-2.8,1.4-4.4,2.3c-1.6,0.9-3.5,2-5.9,3.2v47.7l5.7,2.5v6.2c-2.8,0.6-5.1,1-7,1.3l-5.2,0.9c-0.9,0.2-1.9,0.3-2.8,0.4
	c-0.3,0-1-0.4-1.9-1.2c-0.9-0.8-1.8-1.6-2.7-2.5c-0.8-0.9-1.3-1.5-1.3-1.8v-44.2c0-5.4-0.6-9.1-1.9-11.3c-1.3-2.2-2.7-3.5-4.3-3.9
	c-1.1-0.3-2.3-0.5-3.5-0.6c-0.4,0-1.4,0.3-2.8,0.9c-1.4,0.6-2.9,1.4-4.6,2.3c-1.7,0.9-3.7,2-6.2,3.2v47.7l5.7,2.5v6.2
	c-2.8,0.6-5.1,1-7,1.3l-5.3,0.9C491,295,490,295.1,489.1,295.2z"/>
<path class="st0" d="M617.2,295.2c-5.1,0-9.4-0.9-12.8-2.8c-3.3-1.7-5.9-4.4-7.6-7.6c-1.7-3.4-2.6-7.2-2.5-11.1
	c0-2.8,0.3-5.5,0.9-8.2c0.6-2.9,1.8-5.6,3.4-8l11.7,6c-0.4,1.3-0.7,2.7-0.8,4.1c-0.2,1.6-0.3,3.3-0.3,4.9c0,3.2,0.6,5.8,1.7,7.5
	c1.1,1.8,3.6,2.7,7.4,2.7c0.6,0,1.8-0.4,3.7-1.3s4.2-1.9,6.8-3.2c2.6-1.3,5.2-2.5,7.8-3.8v6.9c-2.7,2-5.4,4.1-8.3,6.2
	c-2.8,2.1-5.3,3.9-7.3,5.4C618.9,294.5,617.6,295.2,617.2,295.2z M598.6,257.5l36.2-5.4v7.4l-26.5,5.5L598.6,257.5z M599.8,227.9
	l2.3-10.2c4-0.2,7.6-0.4,10.7-0.4c3.1-0.1,6.1-0.1,8.9,0c2.8,0.1,5.6,0.2,8.5,0.4c1.7,0.1,3.5,0.9,5.6,2.4c2.2,1.6,4.2,3.5,6,5.5
	c1.9,2,3.5,4.3,4.9,6.7c1.3,2.3,1.9,4.3,1.9,5.9v45.6l5.9,2.5v6.2c-2.2,0.4-4.4,0.9-6.6,1.3l-5.6,1c-1,0.2-2,0.3-3,0.4
	c-0.4,0-1-0.4-1.8-1.1c-0.9-0.7-1.7-1.5-2.4-2.4c-0.7-0.9-1.1-1.6-1.1-2v-8.2l-0.5-2v-37.9c0-3.7-0.7-6.4-2.1-8.2s-3.5-2.8-6.4-3
	c-1.1-0.1-3-0.2-5.5-0.2c-2.6,0-5.4,0-8.5,0.1c-3.1,0.1-6.1,0.1-8.9,0.3L599.8,227.9z"/>
<path class="st0" d="M677.3,295.2c-0.3,0-1-0.4-1.8-1.2c-0.9-0.8-1.8-1.6-2.6-2.5c-0.8-0.9-1.3-1.5-1.3-1.8V228l-5.9-2v-6.2
	c2.6-0.6,4.7-1,6.5-1.3l4.9-0.9c0.9-0.2,1.8-0.3,2.8-0.4c0.3,0,1.1,0.4,2.2,1.3c1.1,0.9,2.1,1.8,3.1,2.8c0.9,1,1.4,1.7,1.4,2
	l-0.3,6.5c1.6-1.6,3-3.1,4.4-4.6c1.4-1.5,2.7-2.9,3.9-4.1c1.2-1.2,2.3-2.2,3.1-2.9s1.4-1.1,1.6-1.1c1.9,0.1,3.7,0.4,5.5,1
	c2.5,0.7,4.3,1.2,5.7,1.7c0.3,0.9,0.5,1.8,0.7,2.7c0.2,0.8,0.3,1.7,0.3,2.5c-0.1,0.6-0.3,1.3-0.6,1.8c-0.4,0.9-0.8,1.8-1.3,2.8
	c-0.5,0.9-1,1.8-1.5,2.7c-0.3,0.5-0.6,1-1.1,1.3c-0.8-0.4-1.7-0.7-2.7-1c-1-0.3-2.1-0.6-3.1-0.8c-1-0.2-2.1-0.3-3.1-0.3
	c-0.6,0.1-1.1,0.2-1.7,0.4c-0.9,0.3-1.8,0.7-2.7,1.2c-1,0.5-2.1,1.1-3.3,1.7c-1.2,0.6-2.4,1.3-3.8,2.1v46.2l8.5,2.5v6.9
	c-2.2,0.4-4.2,0.7-5.9,0.9c-1.7,0.3-3.4,0.5-5.2,0.8c-1.8,0.3-3.3,0.5-4.6,0.7C678.4,295.1,677.7,295.2,677.3,295.2z"/>
<path class="st0" d="M740.5,231.6v52.3l5.7,2.5v6.2c-3.2,0.6-5.9,1.1-8,1.5s-3.7,0.8-4.8,0.9c-0.8,0.1-1.7,0.2-2.5,0.3
	c-0.3,0-1-0.4-1.8-1.2c-0.9-0.8-1.7-1.6-2.5-2.4c-0.8-0.8-1.2-1.4-1.2-1.8v-93.1l-6-2.3v-6.2c1.6-0.4,3.2-0.7,4.9-0.9
	c1.7-0.3,3.3-0.6,4.8-0.8c1.5-0.3,2.8-0.5,3.9-0.7c0.7-0.1,1.4-0.2,2.1-0.3c0.4,0,1.1,0.4,1.9,1.2s1.6,1.6,2.4,2.4s1.2,1.5,1.2,1.9
	l-0.8,40.5H740.5z M773,295.2c-0.2,0-0.8-0.4-1.8-1.1c-1-0.7-1.9-1.5-2.8-2.3c-0.7-0.6-1.3-1.2-1.9-1.9l-19.6-28v-5.5
	c2.9-1,5.8-2.1,8.8-3.3c2.8-1.1,5.3-2.8,7.5-4.9c2-2.1,3-4.9,3-8.5c0-2.8-0.5-4.9-1.6-6.3c-1-1.3-2.3-2.3-3.9-2.8
	c-1.4-0.5-2.8-0.7-4.3-0.8c-0.4,0-1.6,0.5-3.5,1.6c-1.9,1.1-4.2,2.5-6.8,4.2c-2.6,1.7-5.4,3.6-8.3,5.5v-9.4h2.7
	c1.6-1.4,3.3-3,5.2-4.6s3.7-3.2,5.4-4.7c1.7-1.5,3.1-2.7,4.3-3.7c1.2-1,1.9-1.4,2.1-1.4c8.3,0,14.3,1.8,18.2,5.4
	c3.9,3.6,5.8,8.4,5.8,14.6c0.1,3.8-1,7.5-2.9,10.7c-1.9,3.1-4.4,5.7-7.3,7.9c-2.7,2-5.5,3.7-8.5,5l17.4,22.9l6.7,2.7v6.2
	c-1.3,0.3-2.7,0.6-4.2,0.9c-1.5,0.3-2.8,0.6-4.2,0.8c-1.4,0.3-2.5,0.5-3.4,0.7C774.3,295.1,773.6,295.2,773,295.2z"/>
</svg>
