<svg width="0" height="0">
	<symbol xmlns="http://www.w3.org/2000/svg" viewBox="0 0 238.21 150" id="list">
		<rect class="cls-1" width="44.15" height="42.86" rx="11.86" />
		<rect class="cls-1" y="53.57" width="44.15" height="42.86" rx="11.86" />
		<rect class="cls-1" y="107.14" width="44.15" height="42.86" rx="11.86" />
		<rect class="cls-1" x="50.17" width="188.04" height="42.86" rx="15.38" />
		<rect class="cls-1" x="50.17" y="53.57" width="188.04" height="42.86" rx="15.38" />
		<rect class="cls-1" x="50.17" y="107.14" width="188.04" height="42.86" rx="15.38" />
	</symbol>
	<symbol xmlns="http://www.w3.org/2000/svg" viewBox="0 0 420 420" id="grid">
		<rect class="cls-1" width="120" height="120" rx="36.05" />
		<rect class="cls-1" x="300" y="150" width="120" height="120" rx="36.05" />
		<rect class="cls-1" x="150" y="300" width="120" height="120" rx="36.05" />
		<rect class="cls-1" x="150" y="150" width="120" height="120" rx="36.05" />
		<rect class="cls-1" x="300" width="120" height="120" rx="36.05" />
		<rect class="cls-1" x="150" width="120" height="120" rx="36.05" />
		<rect class="cls-1" x="300" y="300" width="120" height="120" rx="36.05" />
		<rect class="cls-1" y="150" width="120" height="120" rx="36.05" />
		<rect class="cls-1" y="300" width="120" height="120" rx="36.05" />
	</symbol>
	<symbol xmlns="http://www.w3.org/2000/svg" viewBox="0 0 224.26 207.18" id="sort">
		<path class="cls-1" d="M67.82,207.18a14.68,14.68,0,0,1-10.44-4.33l-53.06-53a14.77,14.77,0,0,1,10.45-25.21h34.7V22.47a18.35,18.35,0,0,1,36.7,0V124.59h34.71a14.76,14.76,0,0,1,10.44,25.21l-53.06,53A14.66,14.66,0,0,1,67.82,207.18Zm-53-73.51a5.68,5.68,0,0,0-4,9.7l53.06,53.06a5.69,5.69,0,0,0,8,0l53.06-53.06a5.69,5.69,0,0,0-4-9.7H81.63a4.54,4.54,0,0,1-4.54-4.54V22.47a9.27,9.27,0,0,0-18.53,0V129.13A4.54,4.54,0,0,1,54,133.67Z" />
		<path class="cls-1" d="M101.74,158.34a4.55,4.55,0,0,1-3.21-7.76l.89-.89a4.54,4.54,0,0,1,6.43,6.42l-.9.9A4.56,4.56,0,0,1,101.74,158.34Z" />
		<path class="cls-1" d="M68.58,191.49a4.54,4.54,0,0,1-3.21-7.75L88.92,160.2a4.54,4.54,0,0,1,6.42,6.42L71.8,190.16A4.53,4.53,0,0,1,68.58,191.49Z" />
		<path class="cls-1" d="M156.43,0A14.55,14.55,0,0,0,146,4.41L92.93,58.55A15.15,15.15,0,0,0,88.61,69.2a14.93,14.93,0,0,0,14.77,15.06h34.7v104.2a18.35,18.35,0,1,0,36.7,0V84.26h34.71A14.93,14.93,0,0,0,224.26,69.2a15.11,15.11,0,0,0-4.33-10.65L166.87,4.41A14.53,14.53,0,0,0,156.43,0ZM103.38,75a5.75,5.75,0,0,1-5.69-5.8,5.85,5.85,0,0,1,1.67-4.1L152.41,11a5.6,5.6,0,0,1,8,0L213.51,65.1a5.82,5.82,0,0,1,1.66,4.1,5.75,5.75,0,0,1-5.68,5.8H170.24a4.58,4.58,0,0,0-4.54,4.63V188.46a9.27,9.27,0,1,1-18.53,0V79.63A4.58,4.58,0,0,0,142.63,75Z" />
	</symbol>
	<symbol xmlns="http://www.w3.org/2000/svg" viewBox="0 0 1000 1000" id="filter">
		<path d="M10,10l408.3,490v490l163.3-163.3V500L990,10H10z" />
	</symbol>
</svg>
